<mxfile host="app.diagrams.net" agent="Mozilla/5.0 (Windows NT 10.0; Win64; x64) AppleWebKit/537.36 (KHTML, like Gecko) Chrome/136.0.0.0 Safari/537.36" version="26.2.14">
  <diagram name="Page-1" id="Cabb5LPaN_2OAGLxVGRi">
    <mxGraphModel dx="7674" dy="3208" grid="0" gridSize="10" guides="1" tooltips="1" connect="1" arrows="1" fold="1" page="1" pageScale="1" pageWidth="850" pageHeight="1100" math="0" shadow="0">
      <root>
        <mxCell id="0" />
        <mxCell id="1" parent="0" />
        <mxCell id="60BpdWtxb0zM0u8nAMI8-3" value="&lt;font style=&quot;color: rgb(255, 255, 255); font-size: 14px;&quot;&gt;&lt;b style=&quot;&quot;&gt;Venue&lt;/b&gt;&lt;/font&gt;" style="whiteSpace=wrap;html=1;align=center;fillColor=light-dark(#970003,#000000);strokeColor=#FFFFFF;" parent="1" vertex="1">
          <mxGeometry x="-1087.5" y="925" width="100" height="40" as="geometry" />
        </mxCell>
        <mxCell id="60BpdWtxb0zM0u8nAMI8-4" value="&lt;font style=&quot;color: rgb(255, 255, 255); font-size: 14px;&quot;&gt;&lt;b style=&quot;&quot;&gt;Event&lt;/b&gt;&lt;/font&gt;" style="whiteSpace=wrap;html=1;align=center;fillColor=light-dark(#970003,#000000);strokeColor=#FFFFFF;" parent="1" vertex="1">
          <mxGeometry x="-555" y="780" width="100" height="40" as="geometry" />
        </mxCell>
        <mxCell id="60BpdWtxb0zM0u8nAMI8-5" value="&lt;font style=&quot;color: rgb(255, 255, 255); font-size: 14px;&quot;&gt;&lt;b style=&quot;&quot;&gt;Judge&lt;/b&gt;&lt;/font&gt;" style="whiteSpace=wrap;html=1;align=center;fillColor=light-dark(#970003,#000000);strokeColor=#FFFFFF;" parent="1" vertex="1">
          <mxGeometry x="-580" y="250" width="100" height="40" as="geometry" />
        </mxCell>
        <mxCell id="60BpdWtxb0zM0u8nAMI8-6" value="&lt;font style=&quot;color: rgb(255, 255, 255); font-size: 14px;&quot;&gt;&lt;b style=&quot;&quot;&gt;Sponsor&lt;/b&gt;&lt;/font&gt;" style="whiteSpace=wrap;html=1;align=center;fillColor=light-dark(#970003,#000000);strokeColor=#FFFFFF;" parent="1" vertex="1">
          <mxGeometry x="-1600" y="-170" width="100" height="40" as="geometry" />
        </mxCell>
        <mxCell id="60BpdWtxb0zM0u8nAMI8-7" value="&lt;font style=&quot;color: rgb(255, 255, 255); font-size: 14px;&quot;&gt;&lt;b style=&quot;&quot;&gt;Participant&lt;/b&gt;&lt;/font&gt;" style="whiteSpace=wrap;html=1;align=center;fillColor=light-dark(#970003,#000000);strokeColor=#FFFFFF;" parent="1" vertex="1">
          <mxGeometry x="-300" y="250" width="100" height="40" as="geometry" />
        </mxCell>
        <mxCell id="60BpdWtxb0zM0u8nAMI8-8" value="&lt;font style=&quot;color: rgb(255, 255, 255); font-size: 14px;&quot;&gt;&lt;b style=&quot;&quot;&gt;User&lt;/b&gt;&lt;/font&gt;" style="whiteSpace=wrap;html=1;align=center;fillColor=light-dark(#970003,#000000);strokeColor=#FFFFFF;" parent="1" vertex="1">
          <mxGeometry x="-580" y="-30" width="100" height="40" as="geometry" />
        </mxCell>
        <mxCell id="60BpdWtxb0zM0u8nAMI8-24" value="&lt;b&gt;&lt;font style=&quot;font-size: 14px;&quot;&gt;UserID&lt;/font&gt;&lt;/b&gt;" style="ellipse;whiteSpace=wrap;html=1;align=center;fontStyle=4;strokeColor=#FFFFFF;fillColor=light-dark(#E9C569,#000000);" parent="1" vertex="1">
          <mxGeometry x="-780" y="-80" width="100" height="40" as="geometry" />
        </mxCell>
        <mxCell id="60BpdWtxb0zM0u8nAMI8-27" value="&lt;b&gt;&lt;font style=&quot;font-size: 14px;&quot;&gt;Email&lt;/font&gt;&lt;/b&gt;" style="ellipse;whiteSpace=wrap;html=1;align=center;strokeColor=#FFFFFF;fillColor=light-dark(#E9C569,#000000);" parent="1" vertex="1">
          <mxGeometry x="-570" y="-140" width="100" height="40" as="geometry" />
        </mxCell>
        <mxCell id="60BpdWtxb0zM0u8nAMI8-28" value="&lt;b&gt;&lt;font style=&quot;font-size: 14px;&quot;&gt;Name&lt;/font&gt;&lt;/b&gt;" style="ellipse;whiteSpace=wrap;html=1;align=center;strokeColor=#FFFFFF;fillColor=light-dark(#E9C569,#000000);" parent="1" vertex="1">
          <mxGeometry x="-690" y="-120" width="100" height="40" as="geometry" />
        </mxCell>
        <mxCell id="60BpdWtxb0zM0u8nAMI8-29" value="&lt;font style=&quot;font-size: 14px;&quot;&gt;&lt;b&gt;Phone Number&lt;/b&gt;&lt;/font&gt;" style="ellipse;shape=doubleEllipse;margin=3;whiteSpace=wrap;html=1;align=center;fillColor=light-dark(#E9C569,#000000);strokeColor=#000000;" parent="1" vertex="1">
          <mxGeometry x="-420" y="-100" width="120" height="50" as="geometry" />
        </mxCell>
        <mxCell id="60BpdWtxb0zM0u8nAMI8-30" value="&lt;b&gt;&lt;font style=&quot;font-size: 14px;&quot;&gt;Last Name&lt;/font&gt;&lt;/b&gt;" style="ellipse;whiteSpace=wrap;html=1;align=center;strokeColor=#FFFFFF;fillColor=light-dark(#E9C569,#000000);" parent="1" vertex="1">
          <mxGeometry x="-585" y="-200" width="100" height="40" as="geometry" />
        </mxCell>
        <mxCell id="60BpdWtxb0zM0u8nAMI8-31" value="&lt;b&gt;&lt;font style=&quot;font-size: 14px;&quot;&gt;Middle Name&lt;/font&gt;&lt;/b&gt;" style="ellipse;whiteSpace=wrap;html=1;align=center;strokeColor=#FFFFFF;fillColor=light-dark(#E9C569,#000000);" parent="1" vertex="1">
          <mxGeometry x="-695" y="-240" width="110" height="40" as="geometry" />
        </mxCell>
        <mxCell id="60BpdWtxb0zM0u8nAMI8-32" value="&lt;b&gt;&lt;font style=&quot;font-size: 14px;&quot;&gt;First Name&lt;/font&gt;&lt;/b&gt;" style="ellipse;whiteSpace=wrap;html=1;align=center;strokeColor=#FFFFFF;fillColor=light-dark(#E9C569,#000000);" parent="1" vertex="1">
          <mxGeometry x="-800" y="-200" width="100" height="40" as="geometry" />
        </mxCell>
        <mxCell id="60BpdWtxb0zM0u8nAMI8-33" value="" style="endArrow=none;html=1;rounded=0;exitX=0.5;exitY=1;exitDx=0;exitDy=0;entryX=0.5;entryY=0;entryDx=0;entryDy=0;" parent="1" source="60BpdWtxb0zM0u8nAMI8-31" target="60BpdWtxb0zM0u8nAMI8-28" edge="1">
          <mxGeometry relative="1" as="geometry">
            <mxPoint x="-540" y="40" as="sourcePoint" />
            <mxPoint x="-380" y="40" as="targetPoint" />
          </mxGeometry>
        </mxCell>
        <mxCell id="60BpdWtxb0zM0u8nAMI8-34" value="" style="endArrow=none;html=1;rounded=0;exitX=1;exitY=1;exitDx=0;exitDy=0;entryX=0.22;entryY=0.135;entryDx=0;entryDy=0;entryPerimeter=0;" parent="1" source="60BpdWtxb0zM0u8nAMI8-32" target="60BpdWtxb0zM0u8nAMI8-28" edge="1">
          <mxGeometry relative="1" as="geometry">
            <mxPoint x="-540" y="40" as="sourcePoint" />
            <mxPoint x="-380" y="40" as="targetPoint" />
          </mxGeometry>
        </mxCell>
        <mxCell id="60BpdWtxb0zM0u8nAMI8-36" value="" style="endArrow=none;html=1;rounded=0;exitX=0;exitY=0.5;exitDx=0;exitDy=0;entryX=1;entryY=0;entryDx=0;entryDy=0;" parent="1" source="60BpdWtxb0zM0u8nAMI8-29" target="60BpdWtxb0zM0u8nAMI8-8" edge="1">
          <mxGeometry relative="1" as="geometry">
            <mxPoint x="-540" y="40" as="sourcePoint" />
            <mxPoint x="-380" y="40" as="targetPoint" />
          </mxGeometry>
        </mxCell>
        <mxCell id="60BpdWtxb0zM0u8nAMI8-37" value="" style="endArrow=none;html=1;rounded=0;exitX=0.5;exitY=1;exitDx=0;exitDy=0;entryX=0.576;entryY=-0.035;entryDx=0;entryDy=0;entryPerimeter=0;" parent="1" source="60BpdWtxb0zM0u8nAMI8-27" target="60BpdWtxb0zM0u8nAMI8-8" edge="1">
          <mxGeometry relative="1" as="geometry">
            <mxPoint x="-540" y="40" as="sourcePoint" />
            <mxPoint x="-380" y="40" as="targetPoint" />
          </mxGeometry>
        </mxCell>
        <mxCell id="60BpdWtxb0zM0u8nAMI8-38" value="" style="endArrow=none;html=1;rounded=0;entryX=0.25;entryY=0;entryDx=0;entryDy=0;" parent="1" source="60BpdWtxb0zM0u8nAMI8-28" target="60BpdWtxb0zM0u8nAMI8-8" edge="1">
          <mxGeometry relative="1" as="geometry">
            <mxPoint x="-540" y="40" as="sourcePoint" />
            <mxPoint x="-380" y="40" as="targetPoint" />
          </mxGeometry>
        </mxCell>
        <mxCell id="60BpdWtxb0zM0u8nAMI8-39" value="" style="endArrow=none;html=1;rounded=0;exitX=1;exitY=0.5;exitDx=0;exitDy=0;entryX=0;entryY=0.5;entryDx=0;entryDy=0;" parent="1" source="60BpdWtxb0zM0u8nAMI8-24" target="60BpdWtxb0zM0u8nAMI8-8" edge="1">
          <mxGeometry relative="1" as="geometry">
            <mxPoint x="-540" y="40" as="sourcePoint" />
            <mxPoint x="-380" y="40" as="targetPoint" />
          </mxGeometry>
        </mxCell>
        <mxCell id="60BpdWtxb0zM0u8nAMI8-40" value="" style="endArrow=none;html=1;rounded=0;entryX=0;entryY=1;entryDx=0;entryDy=0;exitX=1;exitY=0;exitDx=0;exitDy=0;" parent="1" source="60BpdWtxb0zM0u8nAMI8-28" target="60BpdWtxb0zM0u8nAMI8-30" edge="1">
          <mxGeometry relative="1" as="geometry">
            <mxPoint x="-610" y="-120" as="sourcePoint" />
            <mxPoint x="-380" y="40" as="targetPoint" />
          </mxGeometry>
        </mxCell>
        <mxCell id="60BpdWtxb0zM0u8nAMI8-41" value="&lt;b&gt;&lt;font style=&quot;font-size: 14px;&quot;&gt;Participant ID&lt;/font&gt;&lt;/b&gt;" style="ellipse;whiteSpace=wrap;html=1;align=center;fontStyle=4;strokeColor=#FFFFFF;fillColor=light-dark(#E9C569,#000000);" parent="1" vertex="1">
          <mxGeometry x="-410" y="350" width="100" height="40" as="geometry" />
        </mxCell>
        <mxCell id="60BpdWtxb0zM0u8nAMI8-42" value="&lt;b&gt;&lt;font style=&quot;font-size: 14px;&quot;&gt;University&lt;/font&gt;&lt;/b&gt;" style="ellipse;whiteSpace=wrap;html=1;align=center;strokeColor=#FFFFFF;fillColor=light-dark(#E9C569,#000000);" parent="1" vertex="1">
          <mxGeometry x="-300" y="350" width="100" height="40" as="geometry" />
        </mxCell>
        <mxCell id="60BpdWtxb0zM0u8nAMI8-43" value="&lt;b&gt;&lt;font style=&quot;font-size: 14px;&quot;&gt;Team ID&lt;/font&gt;&lt;/b&gt;" style="ellipse;whiteSpace=wrap;html=1;align=center;strokeColor=#FFFFFF;fillColor=light-dark(#E9C569,#000000);" parent="1" vertex="1">
          <mxGeometry x="-190" y="350" width="100" height="40" as="geometry" />
        </mxCell>
        <mxCell id="60BpdWtxb0zM0u8nAMI8-48" value="&lt;b&gt;&lt;font style=&quot;font-size: 14px;&quot;&gt;Sponsor ID&lt;/font&gt;&lt;/b&gt;" style="ellipse;whiteSpace=wrap;html=1;align=center;fontStyle=4;strokeColor=#FFFFFF;fillColor=light-dark(#E9C569,#000000);" parent="1" vertex="1">
          <mxGeometry x="-1760" y="-170" width="100" height="40" as="geometry" />
        </mxCell>
        <mxCell id="60BpdWtxb0zM0u8nAMI8-49" value="&lt;b&gt;&lt;font style=&quot;font-size: 14px;&quot;&gt;Sponsor Name&lt;/font&gt;&lt;/b&gt;" style="ellipse;whiteSpace=wrap;html=1;align=center;strokeColor=#FFFFFF;fillColor=light-dark(#E9C569,#000000);" parent="1" vertex="1">
          <mxGeometry x="-1640" y="-280" width="110" height="40" as="geometry" />
        </mxCell>
        <mxCell id="60BpdWtxb0zM0u8nAMI8-51" value="&lt;b&gt;&lt;font style=&quot;font-size: 14px;&quot;&gt;Contract Detail&lt;/font&gt;&lt;/b&gt;" style="ellipse;whiteSpace=wrap;html=1;align=center;strokeColor=#FFFFFF;fillColor=light-dark(#E9C569,#000000);" parent="1" vertex="1">
          <mxGeometry x="-1840" y="-255" width="120" height="40" as="geometry" />
        </mxCell>
        <mxCell id="60BpdWtxb0zM0u8nAMI8-52" value="&lt;b&gt;&lt;font style=&quot;font-size: 14px;&quot;&gt;Company Name&lt;/font&gt;&lt;/b&gt;" style="ellipse;whiteSpace=wrap;html=1;align=center;strokeColor=#FFFFFF;fillColor=light-dark(#E9C569,#000000);" parent="1" vertex="1">
          <mxGeometry x="-1760" y="-320" width="120" height="40" as="geometry" />
        </mxCell>
        <mxCell id="60BpdWtxb0zM0u8nAMI8-55" value="" style="endArrow=none;html=1;rounded=0;exitX=0.5;exitY=0;exitDx=0;exitDy=0;entryX=0.5;entryY=1;entryDx=0;entryDy=0;" parent="1" source="60BpdWtxb0zM0u8nAMI8-6" target="60BpdWtxb0zM0u8nAMI8-49" edge="1">
          <mxGeometry relative="1" as="geometry">
            <mxPoint x="-1810" y="-260" as="sourcePoint" />
            <mxPoint x="-1650" y="-260" as="targetPoint" />
          </mxGeometry>
        </mxCell>
        <mxCell id="60BpdWtxb0zM0u8nAMI8-56" value="" style="endArrow=none;html=1;rounded=0;exitX=1;exitY=0.5;exitDx=0;exitDy=0;entryX=0;entryY=0.5;entryDx=0;entryDy=0;" parent="1" source="60BpdWtxb0zM0u8nAMI8-48" target="60BpdWtxb0zM0u8nAMI8-6" edge="1">
          <mxGeometry relative="1" as="geometry">
            <mxPoint x="-1810" y="-260" as="sourcePoint" />
            <mxPoint x="-1650" y="-260" as="targetPoint" />
          </mxGeometry>
        </mxCell>
        <mxCell id="60BpdWtxb0zM0u8nAMI8-57" value="&lt;b&gt;&lt;font style=&quot;font-size: 14px;&quot;&gt;JudgeID&lt;/font&gt;&lt;/b&gt;" style="ellipse;whiteSpace=wrap;html=1;align=center;fontStyle=4;strokeColor=#FFFFFF;fillColor=light-dark(#E9C569,#000000);" parent="1" vertex="1">
          <mxGeometry x="-630" y="380" width="100" height="40" as="geometry" />
        </mxCell>
        <mxCell id="60BpdWtxb0zM0u8nAMI8-67" value="&lt;b&gt;&lt;font style=&quot;font-size: 14px;&quot;&gt;EventID&lt;/font&gt;&lt;/b&gt;" style="ellipse;whiteSpace=wrap;html=1;align=center;fontStyle=4;strokeColor=#FFFFFF;fillColor=light-dark(#E9C569,#000000);" parent="1" vertex="1">
          <mxGeometry x="-750" y="780" width="100" height="40" as="geometry" />
        </mxCell>
        <mxCell id="60BpdWtxb0zM0u8nAMI8-68" value="&lt;b&gt;&lt;font style=&quot;font-size: 14px;&quot;&gt;Event Name&lt;/font&gt;&lt;/b&gt;" style="ellipse;whiteSpace=wrap;html=1;align=center;strokeColor=#FFFFFF;fillColor=light-dark(#E9C569,#000000);" parent="1" vertex="1">
          <mxGeometry x="-720" y="730" width="100" height="40" as="geometry" />
        </mxCell>
        <mxCell id="60BpdWtxb0zM0u8nAMI8-69" value="&lt;b&gt;&lt;font style=&quot;font-size: 14px;&quot;&gt;Description&lt;/font&gt;&lt;/b&gt;" style="ellipse;whiteSpace=wrap;html=1;align=center;strokeColor=#FFFFFF;fillColor=light-dark(#E9C569,#000000);rotation=15;" parent="1" vertex="1">
          <mxGeometry x="-700" y="670" width="100" height="40" as="geometry" />
        </mxCell>
        <mxCell id="60BpdWtxb0zM0u8nAMI8-72" value="&lt;b&gt;&lt;font style=&quot;font-size: 14px;&quot;&gt;RegistrationFee&lt;/font&gt;&lt;/b&gt;" style="ellipse;whiteSpace=wrap;html=1;align=center;strokeColor=#FFFFFF;fillColor=light-dark(#E9C569,#000000);" parent="1" vertex="1">
          <mxGeometry x="-382.5" y="800" width="120" height="50" as="geometry" />
        </mxCell>
        <mxCell id="60BpdWtxb0zM0u8nAMI8-73" value="" style="endArrow=none;html=1;rounded=0;exitX=0;exitY=0;exitDx=0;exitDy=0;entryX=1;entryY=0.5;entryDx=0;entryDy=0;" parent="1" source="60BpdWtxb0zM0u8nAMI8-4" target="60BpdWtxb0zM0u8nAMI8-68" edge="1">
          <mxGeometry relative="1" as="geometry">
            <mxPoint x="-630" y="740" as="sourcePoint" />
            <mxPoint x="-470" y="740" as="targetPoint" />
          </mxGeometry>
        </mxCell>
        <mxCell id="60BpdWtxb0zM0u8nAMI8-74" value="" style="endArrow=none;html=1;rounded=0;exitX=1;exitY=0.5;exitDx=0;exitDy=0;entryX=0;entryY=0.5;entryDx=0;entryDy=0;" parent="1" source="60BpdWtxb0zM0u8nAMI8-67" target="60BpdWtxb0zM0u8nAMI8-4" edge="1">
          <mxGeometry relative="1" as="geometry">
            <mxPoint x="-630" y="740" as="sourcePoint" />
            <mxPoint x="-470" y="740" as="targetPoint" />
          </mxGeometry>
        </mxCell>
        <mxCell id="60BpdWtxb0zM0u8nAMI8-75" value="" style="endArrow=none;html=1;rounded=0;exitX=1;exitY=0.5;exitDx=0;exitDy=0;entryX=0;entryY=0;entryDx=0;entryDy=0;" parent="1" source="60BpdWtxb0zM0u8nAMI8-69" target="60BpdWtxb0zM0u8nAMI8-4" edge="1">
          <mxGeometry relative="1" as="geometry">
            <mxPoint x="-630" y="740" as="sourcePoint" />
            <mxPoint x="-550" y="740" as="targetPoint" />
          </mxGeometry>
        </mxCell>
        <mxCell id="60BpdWtxb0zM0u8nAMI8-76" value="" style="endArrow=none;html=1;rounded=0;entryX=0.5;entryY=0;entryDx=0;entryDy=0;exitX=0.75;exitY=1;exitDx=0;exitDy=0;" parent="1" source="60BpdWtxb0zM0u8nAMI8-4" target="KpKwHpvAeSLFWEE4jo0C-12" edge="1">
          <mxGeometry relative="1" as="geometry">
            <mxPoint x="-455" y="780" as="sourcePoint" />
            <mxPoint x="-413.8908729652603" y="961.1091270347397" as="targetPoint" />
          </mxGeometry>
        </mxCell>
        <mxCell id="60BpdWtxb0zM0u8nAMI8-77" value="" style="endArrow=none;html=1;rounded=0;entryX=0;entryY=0.5;entryDx=0;entryDy=0;exitX=1;exitY=1;exitDx=0;exitDy=0;" parent="1" source="60BpdWtxb0zM0u8nAMI8-4" target="60BpdWtxb0zM0u8nAMI8-280" edge="1">
          <mxGeometry relative="1" as="geometry">
            <mxPoint x="-630" y="740" as="sourcePoint" />
            <mxPoint x="-430" y="735" as="targetPoint" />
          </mxGeometry>
        </mxCell>
        <mxCell id="60BpdWtxb0zM0u8nAMI8-78" value="" style="endArrow=none;html=1;rounded=0;entryX=0;entryY=0.5;entryDx=0;entryDy=0;exitX=1;exitY=0.5;exitDx=0;exitDy=0;" parent="1" source="60BpdWtxb0zM0u8nAMI8-4" target="60BpdWtxb0zM0u8nAMI8-72" edge="1">
          <mxGeometry relative="1" as="geometry">
            <mxPoint x="-630" y="740" as="sourcePoint" />
            <mxPoint x="-470" y="740" as="targetPoint" />
          </mxGeometry>
        </mxCell>
        <mxCell id="60BpdWtxb0zM0u8nAMI8-82" value="&lt;span style=&quot;font-size: 14px;&quot;&gt;&lt;b&gt;OrganizerID&lt;/b&gt;&lt;/span&gt;" style="ellipse;whiteSpace=wrap;html=1;align=center;strokeColor=#FFFFFF;fillColor=light-dark(#E9C569,#000000);" parent="1" vertex="1">
          <mxGeometry x="-620" y="890" width="100" height="40" as="geometry" />
        </mxCell>
        <mxCell id="60BpdWtxb0zM0u8nAMI8-83" value="&lt;b&gt;&lt;font style=&quot;font-size: 14px;&quot;&gt;VenueID&lt;/font&gt;&lt;/b&gt;" style="ellipse;whiteSpace=wrap;html=1;align=center;strokeColor=#FFFFFF;fillColor=light-dark(#E9C569,#000000);rotation=-30;" parent="1" vertex="1">
          <mxGeometry x="-710" y="880" width="100" height="40" as="geometry" />
        </mxCell>
        <mxCell id="60BpdWtxb0zM0u8nAMI8-84" value="&lt;b&gt;&lt;font style=&quot;font-size: 14px;&quot;&gt;Category&lt;/font&gt;&lt;/b&gt;" style="ellipse;whiteSpace=wrap;html=1;align=center;strokeColor=#FFFFFF;fillColor=light-dark(#E9C569,#000000);" parent="1" vertex="1">
          <mxGeometry x="-520" y="986" width="100" height="40" as="geometry" />
        </mxCell>
        <mxCell id="60BpdWtxb0zM0u8nAMI8-86" value="" style="endArrow=none;html=1;rounded=0;exitX=0.5;exitY=1;exitDx=0;exitDy=0;entryX=0.5;entryY=0;entryDx=0;entryDy=0;" parent="1" source="60BpdWtxb0zM0u8nAMI8-4" target="60BpdWtxb0zM0u8nAMI8-84" edge="1">
          <mxGeometry relative="1" as="geometry">
            <mxPoint x="-340" y="960" as="sourcePoint" />
            <mxPoint x="-180" y="960" as="targetPoint" />
          </mxGeometry>
        </mxCell>
        <mxCell id="60BpdWtxb0zM0u8nAMI8-87" value="" style="endArrow=none;html=1;rounded=0;exitX=0.25;exitY=1;exitDx=0;exitDy=0;entryX=0.5;entryY=0;entryDx=0;entryDy=0;" parent="1" source="60BpdWtxb0zM0u8nAMI8-4" target="60BpdWtxb0zM0u8nAMI8-82" edge="1">
          <mxGeometry relative="1" as="geometry">
            <mxPoint x="-340" y="960" as="sourcePoint" />
            <mxPoint x="-180" y="960" as="targetPoint" />
          </mxGeometry>
        </mxCell>
        <mxCell id="60BpdWtxb0zM0u8nAMI8-88" value="" style="endArrow=none;html=1;rounded=0;exitX=0.25;exitY=1;exitDx=0;exitDy=0;entryX=1;entryY=0.5;entryDx=0;entryDy=0;" parent="1" source="60BpdWtxb0zM0u8nAMI8-4" target="60BpdWtxb0zM0u8nAMI8-83" edge="1">
          <mxGeometry relative="1" as="geometry">
            <mxPoint x="-340" y="960" as="sourcePoint" />
            <mxPoint x="-180" y="960" as="targetPoint" />
          </mxGeometry>
        </mxCell>
        <mxCell id="60BpdWtxb0zM0u8nAMI8-92" value="&lt;b&gt;&lt;font style=&quot;font-size: 14px;&quot;&gt;Pyment ID&lt;/font&gt;&lt;/b&gt;" style="ellipse;whiteSpace=wrap;html=1;align=center;fontStyle=4;strokeColor=#FFFFFF;fillColor=light-dark(#E9C569,#000000);" parent="1" vertex="1">
          <mxGeometry x="-510" y="-520" width="100" height="40" as="geometry" />
        </mxCell>
        <mxCell id="60BpdWtxb0zM0u8nAMI8-93" value="&lt;b&gt;&lt;font style=&quot;font-size: 14px;&quot;&gt;UserID&lt;/font&gt;&lt;/b&gt;" style="ellipse;whiteSpace=wrap;html=1;align=center;strokeColor=#FFFFFF;fillColor=light-dark(#E9C569,#000000);" parent="1" vertex="1">
          <mxGeometry x="-440" y="-590" width="100" height="40" as="geometry" />
        </mxCell>
        <mxCell id="60BpdWtxb0zM0u8nAMI8-94" value="&lt;b&gt;&lt;font style=&quot;font-size: 14px;&quot;&gt;Amount&lt;/font&gt;&lt;/b&gt;" style="ellipse;whiteSpace=wrap;html=1;align=center;strokeColor=#FFFFFF;fillColor=light-dark(#E9C569,#000000);" parent="1" vertex="1">
          <mxGeometry x="-330" y="-620" width="100" height="40" as="geometry" />
        </mxCell>
        <mxCell id="60BpdWtxb0zM0u8nAMI8-96" value="&lt;b&gt;&lt;font style=&quot;font-size: 14px;&quot;&gt;PaymentDate&lt;/font&gt;&lt;/b&gt;" style="ellipse;whiteSpace=wrap;html=1;align=center;strokeColor=#FFFFFF;fillColor=light-dark(#E9C569,#000000);" parent="1" vertex="1">
          <mxGeometry x="-205" y="-580" width="110" height="40" as="geometry" />
        </mxCell>
        <mxCell id="60BpdWtxb0zM0u8nAMI8-97" value="&lt;b&gt;&lt;font style=&quot;font-size: 14px;&quot;&gt;Payment Method&lt;/font&gt;&lt;/b&gt;" style="ellipse;whiteSpace=wrap;html=1;align=center;strokeColor=#FFFFFF;fillColor=light-dark(#E9C569,#000000);" parent="1" vertex="1">
          <mxGeometry x="-160" y="-500" width="110" height="50" as="geometry" />
        </mxCell>
        <mxCell id="60BpdWtxb0zM0u8nAMI8-98" value="&lt;b&gt;&lt;font style=&quot;font-size: 14px;&quot;&gt;Status&lt;/font&gt;&lt;/b&gt;" style="ellipse;whiteSpace=wrap;html=1;align=center;strokeColor=#FFFFFF;fillColor=light-dark(#E9C569,#000000);" parent="1" vertex="1">
          <mxGeometry x="-180" y="-420" width="100" height="40" as="geometry" />
        </mxCell>
        <mxCell id="60BpdWtxb0zM0u8nAMI8-99" value="" style="endArrow=none;html=1;rounded=0;entryX=1;entryY=0.25;entryDx=0;entryDy=0;exitX=0;exitY=0.5;exitDx=0;exitDy=0;" parent="1" source="60BpdWtxb0zM0u8nAMI8-97" target="60BpdWtxb0zM0u8nAMI8-256" edge="1">
          <mxGeometry relative="1" as="geometry">
            <mxPoint x="-460" y="-330" as="sourcePoint" />
            <mxPoint x="-230" y="-490" as="targetPoint" />
          </mxGeometry>
        </mxCell>
        <mxCell id="60BpdWtxb0zM0u8nAMI8-100" value="" style="endArrow=none;html=1;rounded=0;entryX=1;entryY=0;entryDx=0;entryDy=0;exitX=0;exitY=1;exitDx=0;exitDy=0;" parent="1" source="60BpdWtxb0zM0u8nAMI8-96" target="60BpdWtxb0zM0u8nAMI8-256" edge="1">
          <mxGeometry relative="1" as="geometry">
            <mxPoint x="-440" y="-360" as="sourcePoint" />
            <mxPoint x="-230" y="-510" as="targetPoint" />
          </mxGeometry>
        </mxCell>
        <mxCell id="60BpdWtxb0zM0u8nAMI8-101" value="" style="endArrow=none;html=1;rounded=0;entryX=0.5;entryY=0;entryDx=0;entryDy=0;exitX=0.5;exitY=1;exitDx=0;exitDy=0;" parent="1" source="60BpdWtxb0zM0u8nAMI8-94" target="60BpdWtxb0zM0u8nAMI8-256" edge="1">
          <mxGeometry relative="1" as="geometry">
            <mxPoint x="-540" y="-370" as="sourcePoint" />
            <mxPoint x="-280" y="-510" as="targetPoint" />
          </mxGeometry>
        </mxCell>
        <mxCell id="60BpdWtxb0zM0u8nAMI8-102" value="" style="endArrow=none;html=1;rounded=0;entryX=0.25;entryY=0;entryDx=0;entryDy=0;exitX=0.76;exitY=0.895;exitDx=0;exitDy=0;exitPerimeter=0;" parent="1" source="60BpdWtxb0zM0u8nAMI8-93" target="60BpdWtxb0zM0u8nAMI8-256" edge="1">
          <mxGeometry relative="1" as="geometry">
            <mxPoint x="-480" y="-390" as="sourcePoint" />
            <mxPoint x="-330" y="-510" as="targetPoint" />
          </mxGeometry>
        </mxCell>
        <mxCell id="60BpdWtxb0zM0u8nAMI8-103" value="" style="endArrow=none;html=1;rounded=0;entryX=0;entryY=0.25;entryDx=0;entryDy=0;exitX=1;exitY=0.5;exitDx=0;exitDy=0;" parent="1" source="60BpdWtxb0zM0u8nAMI8-92" target="60BpdWtxb0zM0u8nAMI8-256" edge="1">
          <mxGeometry relative="1" as="geometry">
            <mxPoint x="-720" y="-500" as="sourcePoint" />
            <mxPoint x="-330" y="-490" as="targetPoint" />
          </mxGeometry>
        </mxCell>
        <mxCell id="60BpdWtxb0zM0u8nAMI8-104" value="" style="endArrow=none;html=1;rounded=0;entryX=0;entryY=0.5;entryDx=0;entryDy=0;exitX=1;exitY=0.75;exitDx=0;exitDy=0;" parent="1" source="60BpdWtxb0zM0u8nAMI8-256" target="60BpdWtxb0zM0u8nAMI8-98" edge="1">
          <mxGeometry relative="1" as="geometry">
            <mxPoint x="-230" y="-470" as="sourcePoint" />
            <mxPoint x="-560" y="-500" as="targetPoint" />
          </mxGeometry>
        </mxCell>
        <mxCell id="60BpdWtxb0zM0u8nAMI8-105" value="&lt;b&gt;&lt;font style=&quot;font-size: 14px;&quot;&gt;Venue Name&lt;/font&gt;&lt;/b&gt;" style="ellipse;whiteSpace=wrap;html=1;align=center;strokeColor=#FFFFFF;fillColor=light-dark(#E9C569,#000000);" parent="1" vertex="1">
          <mxGeometry x="-1157.5" y="825" width="100" height="40" as="geometry" />
        </mxCell>
        <mxCell id="60BpdWtxb0zM0u8nAMI8-106" value="&lt;b&gt;&lt;font style=&quot;font-size: 14px;&quot;&gt;Venue ID&lt;/font&gt;&lt;/b&gt;" style="ellipse;whiteSpace=wrap;html=1;align=center;fontStyle=4;strokeColor=#FFFFFF;fillColor=light-dark(#E9C569,#000000);" parent="1" vertex="1">
          <mxGeometry x="-1257.5" y="885" width="100" height="40" as="geometry" />
        </mxCell>
        <mxCell id="60BpdWtxb0zM0u8nAMI8-107" value="&lt;b&gt;&lt;font style=&quot;font-size: 14px;&quot;&gt;Location&lt;/font&gt;&lt;/b&gt;" style="ellipse;whiteSpace=wrap;html=1;align=center;strokeColor=#FFFFFF;fillColor=light-dark(#E9C569,#000000);" parent="1" vertex="1">
          <mxGeometry x="-1240" y="980" width="100" height="40" as="geometry" />
        </mxCell>
        <mxCell id="60BpdWtxb0zM0u8nAMI8-108" value="&lt;b&gt;&lt;font style=&quot;font-size: 14px;&quot;&gt;Capacity&lt;/font&gt;&lt;/b&gt;" style="ellipse;whiteSpace=wrap;html=1;align=center;strokeColor=#FFFFFF;fillColor=light-dark(#E9C569,#000000);" parent="1" vertex="1">
          <mxGeometry x="-1140" y="1040" width="100" height="40" as="geometry" />
        </mxCell>
        <mxCell id="60BpdWtxb0zM0u8nAMI8-112" value="" style="endArrow=none;html=1;rounded=0;entryX=0.25;entryY=0;entryDx=0;entryDy=0;exitX=0.5;exitY=1;exitDx=0;exitDy=0;" parent="1" source="60BpdWtxb0zM0u8nAMI8-105" target="60BpdWtxb0zM0u8nAMI8-3" edge="1">
          <mxGeometry relative="1" as="geometry">
            <mxPoint x="-1437.5" y="925" as="sourcePoint" />
            <mxPoint x="-1277.5" y="925" as="targetPoint" />
          </mxGeometry>
        </mxCell>
        <mxCell id="60BpdWtxb0zM0u8nAMI8-113" value="" style="endArrow=none;html=1;rounded=0;entryX=0;entryY=0.25;entryDx=0;entryDy=0;exitX=1;exitY=0.5;exitDx=0;exitDy=0;" parent="1" source="60BpdWtxb0zM0u8nAMI8-106" target="60BpdWtxb0zM0u8nAMI8-3" edge="1">
          <mxGeometry relative="1" as="geometry">
            <mxPoint x="-1437.5" y="925" as="sourcePoint" />
            <mxPoint x="-1277.5" y="925" as="targetPoint" />
          </mxGeometry>
        </mxCell>
        <mxCell id="60BpdWtxb0zM0u8nAMI8-114" value="&lt;b&gt;&lt;font style=&quot;font-size: 14px;&quot;&gt;Team ID&lt;/font&gt;&lt;/b&gt;" style="ellipse;whiteSpace=wrap;html=1;align=center;fontStyle=4;strokeColor=#FFFFFF;fillColor=light-dark(#E9C569,#000000);" parent="1" vertex="1">
          <mxGeometry x="335" y="-30" width="100" height="40" as="geometry" />
        </mxCell>
        <mxCell id="60BpdWtxb0zM0u8nAMI8-115" value="&lt;b&gt;&lt;font style=&quot;color: rgb(255, 255, 255); font-size: 14px;&quot;&gt;Team&lt;/font&gt;&lt;/b&gt;" style="shape=ext;margin=3;double=1;whiteSpace=wrap;html=1;align=center;fillColor=light-dark(#970003,#000000);strokeColor=#FFFFFF;" parent="1" vertex="1">
          <mxGeometry x="185" y="10" width="100" height="40" as="geometry" />
        </mxCell>
        <mxCell id="60BpdWtxb0zM0u8nAMI8-116" value="&lt;b&gt;&lt;font style=&quot;font-size: 14px;&quot;&gt;Team Name&lt;/font&gt;&lt;/b&gt;" style="ellipse;whiteSpace=wrap;html=1;align=center;strokeColor=#FFFFFF;fillColor=light-dark(#E9C569,#000000);" parent="1" vertex="1">
          <mxGeometry x="335" y="20" width="100" height="40" as="geometry" />
        </mxCell>
        <mxCell id="60BpdWtxb0zM0u8nAMI8-118" value="&lt;b&gt;&lt;font style=&quot;font-size: 14px;&quot;&gt;Leader ID&lt;/font&gt;&lt;/b&gt;" style="ellipse;whiteSpace=wrap;html=1;align=center;strokeColor=#FFFFFF;fillColor=light-dark(#E9C569,#000000);" parent="1" vertex="1">
          <mxGeometry x="335" y="70" width="100" height="40" as="geometry" />
        </mxCell>
        <mxCell id="60BpdWtxb0zM0u8nAMI8-126" value="&lt;b&gt;&lt;font style=&quot;color: rgb(255, 255, 255); font-size: 14px;&quot;&gt;Sponsorship&lt;/font&gt;&lt;/b&gt;" style="shape=ext;margin=3;double=1;whiteSpace=wrap;html=1;align=center;fillColor=light-dark(#970003,#000000);strokeColor=#FFFFFF;" parent="1" vertex="1">
          <mxGeometry x="-1605" y="30" width="110" height="40" as="geometry" />
        </mxCell>
        <mxCell id="60BpdWtxb0zM0u8nAMI8-127" value="&lt;b&gt;&lt;font style=&quot;color: rgb(255, 255, 255); font-size: 14px;&quot;&gt;Accommodation&lt;/font&gt;&lt;/b&gt;" style="shape=ext;margin=3;double=1;whiteSpace=wrap;html=1;align=center;fillColor=light-dark(#970003,#000000);strokeColor=#FFFFFF;" parent="1" vertex="1">
          <mxGeometry x="-25" y="-140" width="130" height="40" as="geometry" />
        </mxCell>
        <mxCell id="60BpdWtxb0zM0u8nAMI8-128" value="&lt;b&gt;&lt;font style=&quot;color: rgb(255, 255, 255); font-size: 14px;&quot;&gt;Evaluation&lt;/font&gt;&lt;/b&gt;" style="shape=ext;margin=3;double=1;whiteSpace=wrap;html=1;align=center;fillColor=light-dark(#970003,#000000);strokeColor=#FFFFFF;" parent="1" vertex="1">
          <mxGeometry y="785" width="110" height="40" as="geometry" />
        </mxCell>
        <mxCell id="60BpdWtxb0zM0u8nAMI8-129" value="&lt;font style=&quot;color: rgb(255, 255, 255); font-size: 14px;&quot;&gt;&lt;b style=&quot;&quot;&gt;Admin&lt;/b&gt;&lt;/font&gt;" style="whiteSpace=wrap;html=1;align=center;fillColor=light-dark(#970003,#000000);strokeColor=#FFFFFF;" parent="1" vertex="1">
          <mxGeometry x="-1180" y="280" width="100" height="40" as="geometry" />
        </mxCell>
        <mxCell id="60BpdWtxb0zM0u8nAMI8-130" value="&lt;b&gt;&lt;font style=&quot;font-size: 14px;&quot;&gt;AdminID&lt;/font&gt;&lt;/b&gt;" style="ellipse;whiteSpace=wrap;html=1;align=center;fontStyle=4;strokeColor=#FFFFFF;fillColor=light-dark(#E9C569,#000000);" parent="1" vertex="1">
          <mxGeometry x="-1340" y="255" width="100" height="40" as="geometry" />
        </mxCell>
        <mxCell id="60BpdWtxb0zM0u8nAMI8-132" value="&lt;b&gt;&lt;font style=&quot;font-size: 14px;&quot;&gt;Date Assigned&lt;/font&gt;&lt;/b&gt;" style="ellipse;whiteSpace=wrap;html=1;align=center;strokeColor=#FFFFFF;fillColor=light-dark(#E9C569,#000000);" parent="1" vertex="1">
          <mxGeometry x="-1110" y="185" width="130" height="40" as="geometry" />
        </mxCell>
        <mxCell id="60BpdWtxb0zM0u8nAMI8-135" value="" style="endArrow=none;html=1;rounded=0;entryX=0;entryY=0.5;entryDx=0;entryDy=0;exitX=1;exitY=0.5;exitDx=0;exitDy=0;" parent="1" source="60BpdWtxb0zM0u8nAMI8-129" target="KpKwHpvAeSLFWEE4jo0C-7" edge="1">
          <mxGeometry relative="1" as="geometry">
            <mxPoint x="-1180" y="385" as="sourcePoint" />
            <mxPoint x="-1030" y="285" as="targetPoint" />
          </mxGeometry>
        </mxCell>
        <mxCell id="60BpdWtxb0zM0u8nAMI8-136" value="" style="endArrow=none;html=1;rounded=0;exitX=0;exitY=1;exitDx=0;exitDy=0;entryX=0.75;entryY=0;entryDx=0;entryDy=0;" parent="1" source="60BpdWtxb0zM0u8nAMI8-132" target="60BpdWtxb0zM0u8nAMI8-129" edge="1">
          <mxGeometry relative="1" as="geometry">
            <mxPoint x="-1180" y="385" as="sourcePoint" />
            <mxPoint x="-1020" y="385" as="targetPoint" />
          </mxGeometry>
        </mxCell>
        <mxCell id="60BpdWtxb0zM0u8nAMI8-138" value="" style="endArrow=none;html=1;rounded=0;exitX=1;exitY=0.5;exitDx=0;exitDy=0;entryX=0;entryY=0.5;entryDx=0;entryDy=0;" parent="1" source="60BpdWtxb0zM0u8nAMI8-130" target="60BpdWtxb0zM0u8nAMI8-129" edge="1">
          <mxGeometry relative="1" as="geometry">
            <mxPoint x="-1180" y="385" as="sourcePoint" />
            <mxPoint x="-1020" y="385" as="targetPoint" />
          </mxGeometry>
        </mxCell>
        <mxCell id="60BpdWtxb0zM0u8nAMI8-139" value="&lt;font style=&quot;color: rgb(255, 255, 255); font-size: 14px;&quot;&gt;&lt;b style=&quot;&quot;&gt;Event Organizer&lt;/b&gt;&lt;/font&gt;" style="whiteSpace=wrap;html=1;align=center;fillColor=light-dark(#970003,#000000);strokeColor=#FFFFFF;" parent="1" vertex="1">
          <mxGeometry x="-860" y="240" width="100" height="50" as="geometry" />
        </mxCell>
        <mxCell id="60BpdWtxb0zM0u8nAMI8-140" value="&lt;b&gt;&lt;font style=&quot;font-size: 14px;&quot;&gt;Organizer ID&lt;/font&gt;&lt;/b&gt;" style="ellipse;whiteSpace=wrap;html=1;align=center;fontStyle=4;strokeColor=#FFFFFF;fillColor=light-dark(#E9C569,#000000);" parent="1" vertex="1">
          <mxGeometry x="-960" y="330" width="100" height="40" as="geometry" />
        </mxCell>
        <mxCell id="60BpdWtxb0zM0u8nAMI8-141" value="&lt;b&gt;&lt;font style=&quot;font-size: 14px;&quot;&gt;Experience&lt;/font&gt;&lt;/b&gt;" style="ellipse;whiteSpace=wrap;html=1;align=center;strokeColor=#FFFFFF;fillColor=light-dark(#E9C569,#000000);" parent="1" vertex="1">
          <mxGeometry x="-750" y="325" width="120" height="40" as="geometry" />
        </mxCell>
        <mxCell id="60BpdWtxb0zM0u8nAMI8-144" value="" style="endArrow=none;html=1;rounded=0;entryX=1;entryY=1;entryDx=0;entryDy=0;exitX=0.5;exitY=0;exitDx=0;exitDy=0;" parent="1" source="60BpdWtxb0zM0u8nAMI8-43" target="60BpdWtxb0zM0u8nAMI8-7" edge="1">
          <mxGeometry relative="1" as="geometry">
            <mxPoint x="-610" y="330" as="sourcePoint" />
            <mxPoint x="-450" y="330" as="targetPoint" />
          </mxGeometry>
        </mxCell>
        <mxCell id="60BpdWtxb0zM0u8nAMI8-145" value="" style="endArrow=none;html=1;rounded=0;entryX=0.5;entryY=1;entryDx=0;entryDy=0;exitX=0.5;exitY=0;exitDx=0;exitDy=0;" parent="1" source="60BpdWtxb0zM0u8nAMI8-42" target="60BpdWtxb0zM0u8nAMI8-7" edge="1">
          <mxGeometry relative="1" as="geometry">
            <mxPoint x="-610" y="330" as="sourcePoint" />
            <mxPoint x="-450" y="330" as="targetPoint" />
          </mxGeometry>
        </mxCell>
        <mxCell id="60BpdWtxb0zM0u8nAMI8-146" value="" style="endArrow=none;html=1;rounded=0;entryX=0;entryY=1;entryDx=0;entryDy=0;exitX=0.5;exitY=0;exitDx=0;exitDy=0;" parent="1" source="60BpdWtxb0zM0u8nAMI8-41" target="60BpdWtxb0zM0u8nAMI8-7" edge="1">
          <mxGeometry relative="1" as="geometry">
            <mxPoint x="-610" y="330" as="sourcePoint" />
            <mxPoint x="-450" y="330" as="targetPoint" />
          </mxGeometry>
        </mxCell>
        <mxCell id="60BpdWtxb0zM0u8nAMI8-147" value="" style="endArrow=none;html=1;rounded=0;entryX=0.75;entryY=1;entryDx=0;entryDy=0;exitX=0.5;exitY=0;exitDx=0;exitDy=0;" parent="1" source="KpKwHpvAeSLFWEE4jo0C-11" target="60BpdWtxb0zM0u8nAMI8-5" edge="1">
          <mxGeometry relative="1" as="geometry">
            <mxPoint x="-462" y="390" as="sourcePoint" />
            <mxPoint x="-450" y="330" as="targetPoint" />
          </mxGeometry>
        </mxCell>
        <mxCell id="60BpdWtxb0zM0u8nAMI8-148" value="" style="endArrow=none;html=1;rounded=0;exitX=0.25;exitY=1;exitDx=0;exitDy=0;entryX=0.5;entryY=0;entryDx=0;entryDy=0;" parent="1" source="60BpdWtxb0zM0u8nAMI8-5" target="60BpdWtxb0zM0u8nAMI8-57" edge="1">
          <mxGeometry relative="1" as="geometry">
            <mxPoint x="-610" y="330" as="sourcePoint" />
            <mxPoint x="-450" y="330" as="targetPoint" />
          </mxGeometry>
        </mxCell>
        <mxCell id="60BpdWtxb0zM0u8nAMI8-149" value="" style="endArrow=none;html=1;rounded=0;exitX=0.75;exitY=1;exitDx=0;exitDy=0;entryX=0.5;entryY=0;entryDx=0;entryDy=0;" parent="1" source="60BpdWtxb0zM0u8nAMI8-139" target="60BpdWtxb0zM0u8nAMI8-141" edge="1">
          <mxGeometry relative="1" as="geometry">
            <mxPoint x="-730" y="300" as="sourcePoint" />
            <mxPoint x="-570" y="300" as="targetPoint" />
          </mxGeometry>
        </mxCell>
        <mxCell id="60BpdWtxb0zM0u8nAMI8-150" value="" style="endArrow=none;html=1;rounded=0;exitX=0.25;exitY=1;exitDx=0;exitDy=0;entryX=0.5;entryY=0;entryDx=0;entryDy=0;" parent="1" source="60BpdWtxb0zM0u8nAMI8-139" target="60BpdWtxb0zM0u8nAMI8-140" edge="1">
          <mxGeometry relative="1" as="geometry">
            <mxPoint x="-610" y="330" as="sourcePoint" />
            <mxPoint x="-450" y="330" as="targetPoint" />
          </mxGeometry>
        </mxCell>
        <mxCell id="60BpdWtxb0zM0u8nAMI8-151" value="" style="fontSize=12;html=1;endArrow=ERzeroToOne;startArrow=ERmandOne;rounded=0;entryX=0;entryY=1;entryDx=0;entryDy=0;exitX=1;exitY=0;exitDx=0;exitDy=0;" parent="1" source="60BpdWtxb0zM0u8nAMI8-129" target="60BpdWtxb0zM0u8nAMI8-8" edge="1">
          <mxGeometry width="100" height="100" relative="1" as="geometry">
            <mxPoint x="-730" y="150" as="sourcePoint" />
            <mxPoint x="-630" y="50" as="targetPoint" />
          </mxGeometry>
        </mxCell>
        <mxCell id="60BpdWtxb0zM0u8nAMI8-152" value="" style="fontSize=12;html=1;endArrow=ERzeroToOne;startArrow=ERmandOne;rounded=0;entryX=0.25;entryY=1;entryDx=0;entryDy=0;exitX=1;exitY=0;exitDx=0;exitDy=0;" parent="1" source="60BpdWtxb0zM0u8nAMI8-139" target="60BpdWtxb0zM0u8nAMI8-8" edge="1">
          <mxGeometry width="100" height="100" relative="1" as="geometry">
            <mxPoint x="-660" y="150" as="sourcePoint" />
            <mxPoint x="-560" y="50" as="targetPoint" />
          </mxGeometry>
        </mxCell>
        <mxCell id="60BpdWtxb0zM0u8nAMI8-153" value="" style="fontSize=12;html=1;endArrow=ERzeroToOne;startArrow=ERmandOne;rounded=0;entryX=0.5;entryY=1;entryDx=0;entryDy=0;exitX=0.5;exitY=0;exitDx=0;exitDy=0;" parent="1" source="60BpdWtxb0zM0u8nAMI8-5" target="60BpdWtxb0zM0u8nAMI8-8" edge="1">
          <mxGeometry width="100" height="100" relative="1" as="geometry">
            <mxPoint x="-650" y="185" as="sourcePoint" />
            <mxPoint x="-550" y="85" as="targetPoint" />
          </mxGeometry>
        </mxCell>
        <mxCell id="60BpdWtxb0zM0u8nAMI8-155" value="" style="fontSize=12;html=1;endArrow=ERzeroToOne;startArrow=ERmandOne;rounded=0;entryX=0.75;entryY=1;entryDx=0;entryDy=0;exitX=0;exitY=0;exitDx=0;exitDy=0;" parent="1" source="60BpdWtxb0zM0u8nAMI8-7" target="60BpdWtxb0zM0u8nAMI8-8" edge="1">
          <mxGeometry width="100" height="100" relative="1" as="geometry">
            <mxPoint x="-540" y="150" as="sourcePoint" />
            <mxPoint x="-440" y="50" as="targetPoint" />
          </mxGeometry>
        </mxCell>
        <mxCell id="60BpdWtxb0zM0u8nAMI8-156" value="&lt;b&gt;&lt;font style=&quot;font-size: 14px;&quot;&gt;Can be&lt;/font&gt;&lt;/b&gt;" style="shape=rhombus;perimeter=rhombusPerimeter;whiteSpace=wrap;html=1;align=center;fillColor=#DA891F;strokeColor=#FFFFFF;rotation=-30;" parent="1" vertex="1">
          <mxGeometry x="-860" y="100" width="120" height="60" as="geometry" />
        </mxCell>
        <mxCell id="60BpdWtxb0zM0u8nAMI8-157" value="&lt;b&gt;&lt;font style=&quot;font-size: 14px;&quot;&gt;Can be&lt;/font&gt;&lt;/b&gt;" style="shape=rhombus;perimeter=rhombusPerimeter;whiteSpace=wrap;html=1;align=center;fillColor=#DA891F;strokeColor=#FFFFFF;rotation=-45;" parent="1" vertex="1">
          <mxGeometry x="-720" y="100" width="120" height="60" as="geometry" />
        </mxCell>
        <mxCell id="60BpdWtxb0zM0u8nAMI8-158" value="&lt;b&gt;&lt;font style=&quot;font-size: 14px;&quot;&gt;Can be&lt;/font&gt;&lt;/b&gt;" style="shape=rhombus;perimeter=rhombusPerimeter;whiteSpace=wrap;html=1;align=center;fillColor=#DA891F;strokeColor=#FFFFFF;rotation=-90;" parent="1" vertex="1">
          <mxGeometry x="-590" y="100" width="120" height="60" as="geometry" />
        </mxCell>
        <mxCell id="60BpdWtxb0zM0u8nAMI8-159" value="&lt;b&gt;&lt;font style=&quot;font-size: 14px;&quot;&gt;Can be&lt;/font&gt;&lt;/b&gt;" style="shape=rhombus;perimeter=rhombusPerimeter;whiteSpace=wrap;html=1;align=center;fillColor=#DA891F;strokeColor=#FFFFFF;rotation=50;" parent="1" vertex="1">
          <mxGeometry x="-455" y="110" width="120" height="60" as="geometry" />
        </mxCell>
        <mxCell id="60BpdWtxb0zM0u8nAMI8-161" value="" style="fontSize=12;html=1;endArrow=ERoneToMany;startArrow=ERoneToMany;rounded=0;entryX=0.25;entryY=1;entryDx=0;entryDy=0;exitX=0.75;exitY=0;exitDx=0;exitDy=0;" parent="1" source="60BpdWtxb0zM0u8nAMI8-4" target="60BpdWtxb0zM0u8nAMI8-7" edge="1">
          <mxGeometry width="100" height="100" relative="1" as="geometry">
            <mxPoint x="-467" y="785" as="sourcePoint" />
            <mxPoint x="-260" y="570" as="targetPoint" />
          </mxGeometry>
        </mxCell>
        <mxCell id="60BpdWtxb0zM0u8nAMI8-163" value="&lt;b&gt;&lt;font style=&quot;font-size: 14px;&quot;&gt;Register in&lt;/font&gt;&lt;/b&gt;" style="shape=rhombus;perimeter=rhombusPerimeter;whiteSpace=wrap;html=1;align=center;fillColor=#DA891F;strokeColor=#FFFFFF;rotation=-70;" parent="1" vertex="1">
          <mxGeometry x="-430" y="490" width="120" height="60" as="geometry" />
        </mxCell>
        <mxCell id="60BpdWtxb0zM0u8nAMI8-170" value="&lt;b&gt;&lt;font style=&quot;font-size: 14px;&quot;&gt;Register DateTime&lt;/font&gt;&lt;/b&gt;" style="ellipse;whiteSpace=wrap;html=1;align=center;strokeColor=#FFFFFF;fillColor=light-dark(#E9C569,#000000);rotation=25;" parent="1" vertex="1">
          <mxGeometry x="-320" y="540" width="100" height="50" as="geometry" />
        </mxCell>
        <mxCell id="60BpdWtxb0zM0u8nAMI8-171" value="" style="endArrow=none;html=1;rounded=0;exitX=0.5;exitY=1;exitDx=0;exitDy=0;entryX=0;entryY=0.5;entryDx=0;entryDy=0;" parent="1" source="60BpdWtxb0zM0u8nAMI8-163" target="60BpdWtxb0zM0u8nAMI8-170" edge="1">
          <mxGeometry relative="1" as="geometry">
            <mxPoint x="-550" y="580" as="sourcePoint" />
            <mxPoint x="-390" y="580" as="targetPoint" />
          </mxGeometry>
        </mxCell>
        <mxCell id="60BpdWtxb0zM0u8nAMI8-172" value="" style="fontSize=12;html=1;endArrow=ERmandOne;startArrow=ERmandOne;rounded=0;exitX=0.5;exitY=1;exitDx=0;exitDy=0;entryX=0.25;entryY=0;entryDx=0;entryDy=0;" parent="1" source="60BpdWtxb0zM0u8nAMI8-139" target="60BpdWtxb0zM0u8nAMI8-4" edge="1">
          <mxGeometry width="100" height="100" relative="1" as="geometry">
            <mxPoint x="-560" y="580" as="sourcePoint" />
            <mxPoint x="-570" y="620" as="targetPoint" />
          </mxGeometry>
        </mxCell>
        <mxCell id="60BpdWtxb0zM0u8nAMI8-174" value="&lt;b&gt;&lt;font style=&quot;font-size: 14px;&quot;&gt;Organize&lt;/font&gt;&lt;/b&gt;" style="shape=rhombus;perimeter=rhombusPerimeter;whiteSpace=wrap;html=1;align=center;fillColor=#DA891F;strokeColor=#FFFFFF;rotation=60;" parent="1" vertex="1">
          <mxGeometry x="-750" y="470" width="120" height="60" as="geometry" />
        </mxCell>
        <mxCell id="60BpdWtxb0zM0u8nAMI8-175" value="" style="fontSize=12;html=1;endArrow=ERoneToMany;startArrow=ERoneToMany;rounded=0;exitX=0.5;exitY=0;exitDx=0;exitDy=0;entryX=0.5;entryY=1;entryDx=0;entryDy=0;" parent="1" source="60BpdWtxb0zM0u8nAMI8-4" target="60BpdWtxb0zM0u8nAMI8-5" edge="1">
          <mxGeometry width="100" height="100" relative="1" as="geometry">
            <mxPoint x="-540" y="580" as="sourcePoint" />
            <mxPoint x="-440" y="480" as="targetPoint" />
          </mxGeometry>
        </mxCell>
        <mxCell id="60BpdWtxb0zM0u8nAMI8-181" value="&lt;b&gt;&lt;font style=&quot;font-size: 14px;&quot;&gt;Assign To&lt;/font&gt;&lt;/b&gt;" style="shape=rhombus;perimeter=rhombusPerimeter;whiteSpace=wrap;html=1;align=center;fillColor=#DA891F;strokeColor=#FFFFFF;rotation=85;" parent="1" vertex="1">
          <mxGeometry x="-580" y="500" width="120" height="60" as="geometry" />
        </mxCell>
        <mxCell id="60BpdWtxb0zM0u8nAMI8-182" value="&lt;b&gt;&lt;font style=&quot;font-size: 14px;&quot;&gt;Assigned Date&lt;/font&gt;&lt;/b&gt;" style="ellipse;whiteSpace=wrap;html=1;align=center;strokeColor=#FFFFFF;fillColor=light-dark(#E9C569,#000000);rotation=30;" parent="1" vertex="1">
          <mxGeometry x="-645" y="450" width="90" height="50" as="geometry" />
        </mxCell>
        <mxCell id="60BpdWtxb0zM0u8nAMI8-183" value="" style="endArrow=none;html=1;rounded=0;entryX=0;entryY=1;entryDx=0;entryDy=0;exitX=1;exitY=0.5;exitDx=0;exitDy=0;" parent="1" source="60BpdWtxb0zM0u8nAMI8-182" target="60BpdWtxb0zM0u8nAMI8-181" edge="1">
          <mxGeometry relative="1" as="geometry">
            <mxPoint x="-790" y="440" as="sourcePoint" />
            <mxPoint x="-630" y="440" as="targetPoint" />
          </mxGeometry>
        </mxCell>
        <mxCell id="60BpdWtxb0zM0u8nAMI8-197" value="&lt;b&gt;&lt;font style=&quot;font-size: 14px;&quot;&gt;EvaluationID&lt;/font&gt;&lt;/b&gt;" style="ellipse;whiteSpace=wrap;html=1;align=center;fontStyle=4;strokeColor=#FFFFFF;fillColor=light-dark(#E9C569,#000000);" parent="1" vertex="1">
          <mxGeometry x="95" y="700" width="100" height="40" as="geometry" />
        </mxCell>
        <mxCell id="60BpdWtxb0zM0u8nAMI8-198" value="&lt;b&gt;&lt;font style=&quot;font-size: 14px;&quot;&gt;JudgeID&lt;/font&gt;&lt;/b&gt;" style="ellipse;whiteSpace=wrap;html=1;align=center;strokeColor=#FFFFFF;fillColor=light-dark(#E9C569,#000000);" parent="1" vertex="1">
          <mxGeometry x="170" y="770" width="100" height="40" as="geometry" />
        </mxCell>
        <mxCell id="60BpdWtxb0zM0u8nAMI8-199" value="&lt;b&gt;&lt;font style=&quot;font-size: 14px;&quot;&gt;ParticipantID&lt;/font&gt;&lt;/b&gt;" style="ellipse;whiteSpace=wrap;html=1;align=center;strokeColor=#FFFFFF;fillColor=light-dark(#E9C569,#000000);" parent="1" vertex="1">
          <mxGeometry x="170" y="860" width="100" height="40" as="geometry" />
        </mxCell>
        <mxCell id="60BpdWtxb0zM0u8nAMI8-200" value="&lt;b&gt;&lt;font style=&quot;font-size: 14px;&quot;&gt;Event ID&lt;/font&gt;&lt;/b&gt;" style="ellipse;whiteSpace=wrap;html=1;align=center;strokeColor=#FFFFFF;fillColor=light-dark(#E9C569,#000000);" parent="1" vertex="1">
          <mxGeometry x="50" y="900" width="100" height="40" as="geometry" />
        </mxCell>
        <mxCell id="60BpdWtxb0zM0u8nAMI8-201" value="&lt;b&gt;&lt;font style=&quot;font-size: 14px;&quot;&gt;Score&lt;/font&gt;&lt;/b&gt;" style="ellipse;whiteSpace=wrap;html=1;align=center;strokeColor=#FFFFFF;fillColor=light-dark(#E9C569,#000000);" parent="1" vertex="1">
          <mxGeometry x="-90" y="880" width="100" height="40" as="geometry" />
        </mxCell>
        <mxCell id="60BpdWtxb0zM0u8nAMI8-202" value="" style="fontSize=12;html=1;endArrow=ERoneToMany;startArrow=ERzeroToOne;rounded=0;exitX=0.75;exitY=1;exitDx=0;exitDy=0;entryX=0.5;entryY=0;entryDx=0;entryDy=0;" parent="1" source="60BpdWtxb0zM0u8nAMI8-7" target="60BpdWtxb0zM0u8nAMI8-128" edge="1">
          <mxGeometry width="100" height="100" relative="1" as="geometry">
            <mxPoint x="390" y="590" as="sourcePoint" />
            <mxPoint x="490" y="490" as="targetPoint" />
          </mxGeometry>
        </mxCell>
        <mxCell id="60BpdWtxb0zM0u8nAMI8-203" value="" style="fontSize=12;html=1;endArrow=ERoneToMany;startArrow=ERzeroToOne;rounded=0;exitX=1;exitY=1;exitDx=0;exitDy=0;entryX=0.25;entryY=0;entryDx=0;entryDy=0;" parent="1" source="60BpdWtxb0zM0u8nAMI8-5" target="60BpdWtxb0zM0u8nAMI8-128" edge="1">
          <mxGeometry width="100" height="100" relative="1" as="geometry">
            <mxPoint x="-120" y="272.5" as="sourcePoint" />
            <mxPoint x="160" y="767.5" as="targetPoint" />
          </mxGeometry>
        </mxCell>
        <mxCell id="60BpdWtxb0zM0u8nAMI8-204" value="" style="fontSize=12;html=1;endArrow=ERoneToMany;startArrow=ERzeroToOne;rounded=0;exitX=1;exitY=0.25;exitDx=0;exitDy=0;entryX=0;entryY=0;entryDx=0;entryDy=0;" parent="1" source="60BpdWtxb0zM0u8nAMI8-4" target="60BpdWtxb0zM0u8nAMI8-128" edge="1">
          <mxGeometry width="100" height="100" relative="1" as="geometry">
            <mxPoint x="-470" y="300" as="sourcePoint" />
            <mxPoint x="38" y="795" as="targetPoint" />
          </mxGeometry>
        </mxCell>
        <mxCell id="60BpdWtxb0zM0u8nAMI8-205" value="" style="endArrow=none;html=1;rounded=0;exitX=0;exitY=1;exitDx=0;exitDy=0;entryX=0.5;entryY=0;entryDx=0;entryDy=0;" parent="1" source="60BpdWtxb0zM0u8nAMI8-128" target="60BpdWtxb0zM0u8nAMI8-201" edge="1">
          <mxGeometry relative="1" as="geometry">
            <mxPoint x="30" y="870" as="sourcePoint" />
            <mxPoint x="520" y="540" as="targetPoint" />
          </mxGeometry>
        </mxCell>
        <mxCell id="60BpdWtxb0zM0u8nAMI8-206" value="" style="endArrow=none;html=1;rounded=0;exitX=0.75;exitY=1;exitDx=0;exitDy=0;entryX=0.5;entryY=0;entryDx=0;entryDy=0;" parent="1" source="60BpdWtxb0zM0u8nAMI8-128" target="60BpdWtxb0zM0u8nAMI8-200" edge="1">
          <mxGeometry relative="1" as="geometry">
            <mxPoint x="360" y="540" as="sourcePoint" />
            <mxPoint x="520" y="540" as="targetPoint" />
          </mxGeometry>
        </mxCell>
        <mxCell id="60BpdWtxb0zM0u8nAMI8-207" value="" style="endArrow=none;html=1;rounded=0;exitX=1;exitY=1;exitDx=0;exitDy=0;entryX=0;entryY=0.5;entryDx=0;entryDy=0;" parent="1" source="60BpdWtxb0zM0u8nAMI8-128" target="60BpdWtxb0zM0u8nAMI8-199" edge="1">
          <mxGeometry relative="1" as="geometry">
            <mxPoint x="140" y="840" as="sourcePoint" />
            <mxPoint x="520" y="540" as="targetPoint" />
          </mxGeometry>
        </mxCell>
        <mxCell id="60BpdWtxb0zM0u8nAMI8-208" value="" style="endArrow=none;html=1;rounded=0;exitX=1;exitY=0.25;exitDx=0;exitDy=0;entryX=0;entryY=0.5;entryDx=0;entryDy=0;" parent="1" source="60BpdWtxb0zM0u8nAMI8-128" target="60BpdWtxb0zM0u8nAMI8-198" edge="1">
          <mxGeometry relative="1" as="geometry">
            <mxPoint x="360" y="540" as="sourcePoint" />
            <mxPoint x="520" y="540" as="targetPoint" />
          </mxGeometry>
        </mxCell>
        <mxCell id="60BpdWtxb0zM0u8nAMI8-209" value="" style="endArrow=none;html=1;rounded=0;exitX=0.75;exitY=0;exitDx=0;exitDy=0;entryX=0.5;entryY=1;entryDx=0;entryDy=0;" parent="1" source="60BpdWtxb0zM0u8nAMI8-128" target="60BpdWtxb0zM0u8nAMI8-197" edge="1">
          <mxGeometry relative="1" as="geometry">
            <mxPoint x="360" y="540" as="sourcePoint" />
            <mxPoint x="520" y="540" as="targetPoint" />
          </mxGeometry>
        </mxCell>
        <mxCell id="60BpdWtxb0zM0u8nAMI8-210" value="&lt;b&gt;&lt;font style=&quot;font-size: 14px;&quot;&gt;Receives&lt;/font&gt;&lt;/b&gt;" style="shape=rhombus;perimeter=rhombusPerimeter;whiteSpace=wrap;html=1;align=center;fillColor=#DA891F;strokeColor=#FFFFFF;rotation=60;" parent="1" vertex="1">
          <mxGeometry x="-130" y="540" width="120" height="60" as="geometry" />
        </mxCell>
        <mxCell id="60BpdWtxb0zM0u8nAMI8-211" value="&lt;b&gt;&lt;font style=&quot;font-size: 14px;&quot;&gt;Conduct&lt;/font&gt;&lt;/b&gt;" style="shape=rhombus;perimeter=rhombusPerimeter;whiteSpace=wrap;html=1;align=center;fillColor=#DA891F;strokeColor=#FFFFFF;rotation=45;" parent="1" vertex="1">
          <mxGeometry x="-190" y="600" width="120" height="60" as="geometry" />
        </mxCell>
        <mxCell id="60BpdWtxb0zM0u8nAMI8-212" value="&lt;b&gt;&lt;font style=&quot;font-size: 14px;&quot;&gt;Has&lt;/font&gt;&lt;/b&gt;" style="shape=rhombus;perimeter=rhombusPerimeter;whiteSpace=wrap;html=1;align=center;fillColor=#DA891F;strokeColor=#FFFFFF;rotation=0;" parent="1" vertex="1">
          <mxGeometry x="-220" y="760" width="120" height="60" as="geometry" />
        </mxCell>
        <mxCell id="60BpdWtxb0zM0u8nAMI8-215" value="" style="endArrow=none;html=1;rounded=0;exitX=0.884;exitY=0.932;exitDx=0;exitDy=0;entryX=0.5;entryY=0;entryDx=0;entryDy=0;exitPerimeter=0;" parent="1" source="60BpdWtxb0zM0u8nAMI8-128" target="u00Ax2QvqGvgJEfIZU2q-9" edge="1">
          <mxGeometry relative="1" as="geometry">
            <mxPoint x="12.5" y="840" as="sourcePoint" />
            <mxPoint x="172.5" y="840" as="targetPoint" />
          </mxGeometry>
        </mxCell>
        <mxCell id="60BpdWtxb0zM0u8nAMI8-221" value="" style="endArrow=none;html=1;rounded=0;exitX=0.5;exitY=0;exitDx=0;exitDy=0;entryX=0.25;entryY=1;entryDx=0;entryDy=0;" parent="1" source="60BpdWtxb0zM0u8nAMI8-108" target="60BpdWtxb0zM0u8nAMI8-3" edge="1">
          <mxGeometry relative="1" as="geometry">
            <mxPoint x="-1040" y="960" as="sourcePoint" />
            <mxPoint x="-880" y="960" as="targetPoint" />
          </mxGeometry>
        </mxCell>
        <mxCell id="60BpdWtxb0zM0u8nAMI8-222" value="" style="endArrow=none;html=1;rounded=0;exitX=1;exitY=0.5;exitDx=0;exitDy=0;entryX=0;entryY=1;entryDx=0;entryDy=0;" parent="1" source="60BpdWtxb0zM0u8nAMI8-107" target="60BpdWtxb0zM0u8nAMI8-3" edge="1">
          <mxGeometry relative="1" as="geometry">
            <mxPoint x="-1040" y="960" as="sourcePoint" />
            <mxPoint x="-880" y="960" as="targetPoint" />
          </mxGeometry>
        </mxCell>
        <mxCell id="60BpdWtxb0zM0u8nAMI8-223" value="" style="fontSize=12;html=1;endArrow=ERoneToMany;startArrow=ERzeroToOne;rounded=0;entryX=0;entryY=0.75;entryDx=0;entryDy=0;exitX=1;exitY=0.25;exitDx=0;exitDy=0;" parent="1" source="60BpdWtxb0zM0u8nAMI8-3" target="60BpdWtxb0zM0u8nAMI8-4" edge="1">
          <mxGeometry width="100" height="100" relative="1" as="geometry">
            <mxPoint x="-1010" y="950" as="sourcePoint" />
            <mxPoint x="-910" y="850" as="targetPoint" />
          </mxGeometry>
        </mxCell>
        <mxCell id="60BpdWtxb0zM0u8nAMI8-224" value="&lt;b&gt;&lt;font style=&quot;font-size: 14px;&quot;&gt;Allocated To&lt;/font&gt;&lt;/b&gt;" style="shape=rhombus;perimeter=rhombusPerimeter;whiteSpace=wrap;html=1;align=center;fillColor=#DA891F;strokeColor=#FFFFFF;rotation=-15;" parent="1" vertex="1">
          <mxGeometry x="-860" y="850" width="120" height="60" as="geometry" />
        </mxCell>
        <mxCell id="60BpdWtxb0zM0u8nAMI8-225" value="&lt;b&gt;&lt;font style=&quot;font-size: 14px;&quot;&gt;Status&lt;/font&gt;&lt;/b&gt;" style="ellipse;whiteSpace=wrap;html=1;align=center;strokeColor=#FFFFFF;fillColor=light-dark(#E9C569,#000000);" parent="1" vertex="1">
          <mxGeometry x="-1030" y="820" width="100" height="40" as="geometry" />
        </mxCell>
        <mxCell id="60BpdWtxb0zM0u8nAMI8-226" value="" style="endArrow=none;html=1;rounded=0;exitX=0.5;exitY=1;exitDx=0;exitDy=0;entryX=0.75;entryY=0;entryDx=0;entryDy=0;" parent="1" source="60BpdWtxb0zM0u8nAMI8-225" target="60BpdWtxb0zM0u8nAMI8-3" edge="1">
          <mxGeometry relative="1" as="geometry">
            <mxPoint x="-1040" y="900" as="sourcePoint" />
            <mxPoint x="-880" y="900" as="targetPoint" />
          </mxGeometry>
        </mxCell>
        <mxCell id="60BpdWtxb0zM0u8nAMI8-227" value="&lt;b&gt;&lt;font style=&quot;font-size: 14px;&quot;&gt;DateTime&lt;/font&gt;&lt;/b&gt;" style="ellipse;whiteSpace=wrap;html=1;align=center;strokeColor=#FFFFFF;fillColor=light-dark(#E9C569,#000000);rotation=45;" parent="1" vertex="1">
          <mxGeometry x="-920" y="760" width="100" height="40" as="geometry" />
        </mxCell>
        <mxCell id="60BpdWtxb0zM0u8nAMI8-228" value="" style="endArrow=none;html=1;rounded=0;entryX=1;entryY=0.5;entryDx=0;entryDy=0;exitX=0.5;exitY=0;exitDx=0;exitDy=0;" parent="1" source="60BpdWtxb0zM0u8nAMI8-224" target="60BpdWtxb0zM0u8nAMI8-227" edge="1">
          <mxGeometry relative="1" as="geometry">
            <mxPoint x="-1040" y="900" as="sourcePoint" />
            <mxPoint x="-880" y="900" as="targetPoint" />
          </mxGeometry>
        </mxCell>
        <mxCell id="60BpdWtxb0zM0u8nAMI8-229" value="" style="fontSize=12;html=1;endArrow=ERoneToMany;startArrow=ERzeroToOne;rounded=0;entryX=0.5;entryY=0;entryDx=0;entryDy=0;exitX=0.5;exitY=1;exitDx=0;exitDy=0;" parent="1" source="60BpdWtxb0zM0u8nAMI8-6" target="60BpdWtxb0zM0u8nAMI8-126" edge="1">
          <mxGeometry width="100" height="100" relative="1" as="geometry">
            <mxPoint x="-350" y="410" as="sourcePoint" />
            <mxPoint x="-250" y="310" as="targetPoint" />
          </mxGeometry>
        </mxCell>
        <mxCell id="60BpdWtxb0zM0u8nAMI8-230" value="&lt;b&gt;&lt;font style=&quot;font-size: 14px;&quot;&gt;Provide&lt;/font&gt;&lt;/b&gt;" style="shape=rhombus;perimeter=rhombusPerimeter;whiteSpace=wrap;html=1;align=center;fillColor=#DA891F;strokeColor=#FFFFFF;rotation=0;" parent="1" vertex="1">
          <mxGeometry x="-1610" y="-90" width="120" height="60" as="geometry" />
        </mxCell>
        <mxCell id="60BpdWtxb0zM0u8nAMI8-231" value="&lt;b&gt;&lt;font style=&quot;font-size: 14px;&quot;&gt;SponsorshipID&lt;/font&gt;&lt;/b&gt;" style="ellipse;whiteSpace=wrap;html=1;align=center;fontStyle=4;strokeColor=#FFFFFF;fillColor=light-dark(#E9C569,#000000);" parent="1" vertex="1">
          <mxGeometry x="-1610" y="140" width="120" height="50" as="geometry" />
        </mxCell>
        <mxCell id="60BpdWtxb0zM0u8nAMI8-233" value="&lt;b&gt;&lt;font style=&quot;font-size: 14px;&quot;&gt;SponsorID&lt;/font&gt;&lt;/b&gt;" style="ellipse;whiteSpace=wrap;html=1;align=center;strokeColor=#FFFFFF;fillColor=light-dark(#E9C569,#000000);" parent="1" vertex="1">
          <mxGeometry x="-1470" y="120" width="120" height="40" as="geometry" />
        </mxCell>
        <mxCell id="60BpdWtxb0zM0u8nAMI8-234" value="&lt;b&gt;&lt;font style=&quot;font-size: 14px;&quot;&gt;PaymentStatus&lt;/font&gt;&lt;/b&gt;" style="ellipse;whiteSpace=wrap;html=1;align=center;strokeColor=#FFFFFF;fillColor=light-dark(#E9C569,#000000);" parent="1" vertex="1">
          <mxGeometry x="-1410" y="50" width="135" height="40" as="geometry" />
        </mxCell>
        <mxCell id="60BpdWtxb0zM0u8nAMI8-235" value="&lt;b&gt;&lt;font style=&quot;font-size: 14px;&quot;&gt;Contract Details&lt;/font&gt;&lt;/b&gt;" style="ellipse;whiteSpace=wrap;html=1;align=center;strokeColor=#FFFFFF;fillColor=light-dark(#E9C569,#000000);" parent="1" vertex="1">
          <mxGeometry x="-1420" y="-10" width="100" height="40" as="geometry" />
        </mxCell>
        <mxCell id="60BpdWtxb0zM0u8nAMI8-236" value="" style="endArrow=none;html=1;rounded=0;exitX=0.5;exitY=1;exitDx=0;exitDy=0;entryX=0.5;entryY=0;entryDx=0;entryDy=0;" parent="1" source="60BpdWtxb0zM0u8nAMI8-126" target="60BpdWtxb0zM0u8nAMI8-231" edge="1">
          <mxGeometry relative="1" as="geometry">
            <mxPoint x="-1270" y="-70" as="sourcePoint" />
            <mxPoint x="-1110" y="-70" as="targetPoint" />
          </mxGeometry>
        </mxCell>
        <mxCell id="60BpdWtxb0zM0u8nAMI8-237" value="" style="endArrow=none;html=1;rounded=0;exitX=0.936;exitY=0.965;exitDx=0;exitDy=0;exitPerimeter=0;entryX=0;entryY=0;entryDx=0;entryDy=0;" parent="1" source="60BpdWtxb0zM0u8nAMI8-126" target="60BpdWtxb0zM0u8nAMI8-233" edge="1">
          <mxGeometry relative="1" as="geometry">
            <mxPoint x="-1270" y="-70" as="sourcePoint" />
            <mxPoint x="-1110" y="-70" as="targetPoint" />
          </mxGeometry>
        </mxCell>
        <mxCell id="60BpdWtxb0zM0u8nAMI8-238" value="" style="endArrow=none;html=1;rounded=0;exitX=1;exitY=0.75;exitDx=0;exitDy=0;entryX=0;entryY=0.5;entryDx=0;entryDy=0;" parent="1" source="60BpdWtxb0zM0u8nAMI8-126" target="60BpdWtxb0zM0u8nAMI8-234" edge="1">
          <mxGeometry relative="1" as="geometry">
            <mxPoint x="-1270" y="-70" as="sourcePoint" />
            <mxPoint x="-1110" y="-70" as="targetPoint" />
          </mxGeometry>
        </mxCell>
        <mxCell id="60BpdWtxb0zM0u8nAMI8-239" value="" style="endArrow=none;html=1;rounded=0;exitX=1;exitY=0.25;exitDx=0;exitDy=0;entryX=0;entryY=0.5;entryDx=0;entryDy=0;" parent="1" source="60BpdWtxb0zM0u8nAMI8-126" target="60BpdWtxb0zM0u8nAMI8-235" edge="1">
          <mxGeometry relative="1" as="geometry">
            <mxPoint x="-1270" y="-70" as="sourcePoint" />
            <mxPoint x="-1110" y="-70" as="targetPoint" />
          </mxGeometry>
        </mxCell>
        <mxCell id="60BpdWtxb0zM0u8nAMI8-240" value="&lt;b&gt;&lt;font style=&quot;font-size: 14px;&quot;&gt;Bed No&lt;/font&gt;&lt;/b&gt;" style="ellipse;whiteSpace=wrap;html=1;align=center;fontStyle=4;strokeColor=#FFFFFF;fillColor=light-dark(#E9C569,#000000);" parent="1" vertex="1">
          <mxGeometry x="-205" y="-250" width="150" height="50" as="geometry" />
        </mxCell>
        <mxCell id="60BpdWtxb0zM0u8nAMI8-241" value="&lt;b&gt;&lt;font style=&quot;font-size: 14px;&quot;&gt;Participant ID&lt;/font&gt;&lt;/b&gt;" style="ellipse;whiteSpace=wrap;html=1;align=center;strokeColor=#FFFFFF;fillColor=light-dark(#E9C569,#000000);" parent="1" vertex="1">
          <mxGeometry x="-15" y="-300" width="120" height="40" as="geometry" />
        </mxCell>
        <mxCell id="60BpdWtxb0zM0u8nAMI8-242" value="&lt;b&gt;&lt;font style=&quot;font-size: 14px;&quot;&gt;Room Number&lt;/font&gt;&lt;/b&gt;" style="ellipse;whiteSpace=wrap;html=1;align=center;strokeColor=#FFFFFF;fillColor=light-dark(#E9C569,#000000);" parent="1" vertex="1">
          <mxGeometry x="140" y="-290" width="120" height="40" as="geometry" />
        </mxCell>
        <mxCell id="60BpdWtxb0zM0u8nAMI8-243" value="&lt;b&gt;&lt;font style=&quot;font-size: 14px;&quot;&gt;Check In Date&lt;/font&gt;&lt;/b&gt;" style="ellipse;whiteSpace=wrap;html=1;align=center;strokeColor=#FFFFFF;fillColor=light-dark(#E9C569,#000000);" parent="1" vertex="1">
          <mxGeometry x="235" y="-220" width="120" height="40" as="geometry" />
        </mxCell>
        <mxCell id="60BpdWtxb0zM0u8nAMI8-244" value="&lt;b&gt;&lt;font style=&quot;font-size: 14px;&quot;&gt;Check Out Date&lt;/font&gt;&lt;/b&gt;" style="ellipse;whiteSpace=wrap;html=1;align=center;strokeColor=#FFFFFF;fillColor=light-dark(#E9C569,#000000);" parent="1" vertex="1">
          <mxGeometry x="235" y="-120" width="130" height="40" as="geometry" />
        </mxCell>
        <mxCell id="60BpdWtxb0zM0u8nAMI8-245" value="" style="endArrow=none;html=1;rounded=0;exitX=1;exitY=0.5;exitDx=0;exitDy=0;entryX=0;entryY=0.5;entryDx=0;entryDy=0;" parent="1" source="60BpdWtxb0zM0u8nAMI8-127" target="60BpdWtxb0zM0u8nAMI8-244" edge="1">
          <mxGeometry relative="1" as="geometry">
            <mxPoint x="625" y="-130" as="sourcePoint" />
            <mxPoint x="785" y="-130" as="targetPoint" />
          </mxGeometry>
        </mxCell>
        <mxCell id="60BpdWtxb0zM0u8nAMI8-246" value="" style="endArrow=none;html=1;rounded=0;exitX=1;exitY=0;exitDx=0;exitDy=0;entryX=0;entryY=0.5;entryDx=0;entryDy=0;" parent="1" source="60BpdWtxb0zM0u8nAMI8-127" target="60BpdWtxb0zM0u8nAMI8-243" edge="1">
          <mxGeometry relative="1" as="geometry">
            <mxPoint x="625" y="-130" as="sourcePoint" />
            <mxPoint x="785" y="-130" as="targetPoint" />
          </mxGeometry>
        </mxCell>
        <mxCell id="60BpdWtxb0zM0u8nAMI8-247" value="" style="endArrow=none;html=1;rounded=0;exitX=0.5;exitY=0;exitDx=0;exitDy=0;entryX=0;entryY=1;entryDx=0;entryDy=0;" parent="1" source="60BpdWtxb0zM0u8nAMI8-127" target="60BpdWtxb0zM0u8nAMI8-242" edge="1">
          <mxGeometry relative="1" as="geometry">
            <mxPoint x="625" y="-130" as="sourcePoint" />
            <mxPoint x="785" y="-130" as="targetPoint" />
          </mxGeometry>
        </mxCell>
        <mxCell id="60BpdWtxb0zM0u8nAMI8-248" value="" style="endArrow=none;html=1;rounded=0;exitX=0.265;exitY=1.029;exitDx=0;exitDy=0;exitPerimeter=0;entryX=0.25;entryY=0;entryDx=0;entryDy=0;" parent="1" source="60BpdWtxb0zM0u8nAMI8-241" target="60BpdWtxb0zM0u8nAMI8-127" edge="1">
          <mxGeometry relative="1" as="geometry">
            <mxPoint x="625" y="-130" as="sourcePoint" />
            <mxPoint x="785" y="-130" as="targetPoint" />
          </mxGeometry>
        </mxCell>
        <mxCell id="60BpdWtxb0zM0u8nAMI8-249" value="" style="endArrow=none;html=1;rounded=0;exitX=0;exitY=0;exitDx=0;exitDy=0;entryX=1;entryY=1;entryDx=0;entryDy=0;" parent="1" source="60BpdWtxb0zM0u8nAMI8-127" target="60BpdWtxb0zM0u8nAMI8-240" edge="1">
          <mxGeometry relative="1" as="geometry">
            <mxPoint x="625" y="-130" as="sourcePoint" />
            <mxPoint x="785" y="-130" as="targetPoint" />
          </mxGeometry>
        </mxCell>
        <mxCell id="60BpdWtxb0zM0u8nAMI8-252" value="" style="fontSize=12;html=1;endArrow=ERoneToMany;startArrow=ERzeroToOne;rounded=0;entryX=0.5;entryY=1;entryDx=0;entryDy=0;exitX=0.5;exitY=0;exitDx=0;exitDy=0;" parent="1" source="60BpdWtxb0zM0u8nAMI8-7" target="60BpdWtxb0zM0u8nAMI8-256" edge="1">
          <mxGeometry width="100" height="100" relative="1" as="geometry">
            <mxPoint x="-420" y="-180" as="sourcePoint" />
            <mxPoint x="-259.7999999999997" y="-491.76" as="targetPoint" />
          </mxGeometry>
        </mxCell>
        <mxCell id="60BpdWtxb0zM0u8nAMI8-254" value="&lt;b&gt;&lt;font style=&quot;font-size: 14px;&quot;&gt;Makes&lt;/font&gt;&lt;/b&gt;" style="shape=rhombus;perimeter=rhombusPerimeter;whiteSpace=wrap;html=1;align=center;fillColor=#DA891F;strokeColor=#FFFFFF;rotation=-95;" parent="1" vertex="1">
          <mxGeometry x="-347.14" y="-241.99999999999997" width="134.28" height="56.91" as="geometry" />
        </mxCell>
        <mxCell id="60BpdWtxb0zM0u8nAMI8-256" value="&lt;b&gt;&lt;font style=&quot;color: rgb(255, 255, 255); font-size: 14px;&quot;&gt;Payment&lt;/font&gt;&lt;/b&gt;" style="shape=ext;margin=3;double=1;whiteSpace=wrap;html=1;align=center;fillColor=light-dark(#970003,#000000);strokeColor=#FFFFFF;" parent="1" vertex="1">
          <mxGeometry x="-340" y="-470" width="100" height="40" as="geometry" />
        </mxCell>
        <mxCell id="60BpdWtxb0zM0u8nAMI8-257" value="" style="endArrow=none;html=1;rounded=0;exitX=1;exitY=0;exitDx=0;exitDy=0;entryX=0;entryY=0.5;entryDx=0;entryDy=0;" parent="1" source="60BpdWtxb0zM0u8nAMI8-115" target="60BpdWtxb0zM0u8nAMI8-114" edge="1">
          <mxGeometry relative="1" as="geometry">
            <mxPoint x="215" as="sourcePoint" />
            <mxPoint x="375" as="targetPoint" />
          </mxGeometry>
        </mxCell>
        <mxCell id="60BpdWtxb0zM0u8nAMI8-258" value="" style="endArrow=none;html=1;rounded=0;exitX=1;exitY=0.5;exitDx=0;exitDy=0;entryX=0;entryY=0.5;entryDx=0;entryDy=0;" parent="1" source="60BpdWtxb0zM0u8nAMI8-115" target="60BpdWtxb0zM0u8nAMI8-116" edge="1">
          <mxGeometry relative="1" as="geometry">
            <mxPoint x="215" as="sourcePoint" />
            <mxPoint x="375" as="targetPoint" />
          </mxGeometry>
        </mxCell>
        <mxCell id="60BpdWtxb0zM0u8nAMI8-259" value="" style="endArrow=none;html=1;rounded=0;exitX=1;exitY=1;exitDx=0;exitDy=0;entryX=0;entryY=0.5;entryDx=0;entryDy=0;" parent="1" source="60BpdWtxb0zM0u8nAMI8-115" target="60BpdWtxb0zM0u8nAMI8-118" edge="1">
          <mxGeometry relative="1" as="geometry">
            <mxPoint x="215" as="sourcePoint" />
            <mxPoint x="375" as="targetPoint" />
          </mxGeometry>
        </mxCell>
        <mxCell id="60BpdWtxb0zM0u8nAMI8-260" value="" style="fontSize=12;html=1;endArrow=ERoneToMany;startArrow=ERzeroToMany;rounded=0;exitX=1;exitY=0.5;exitDx=0;exitDy=0;entryX=0;entryY=0.5;entryDx=0;entryDy=0;" parent="1" source="60BpdWtxb0zM0u8nAMI8-7" target="60BpdWtxb0zM0u8nAMI8-115" edge="1">
          <mxGeometry width="100" height="100" relative="1" as="geometry">
            <mxPoint x="90" y="90" as="sourcePoint" />
            <mxPoint x="290" y="10" as="targetPoint" />
          </mxGeometry>
        </mxCell>
        <mxCell id="60BpdWtxb0zM0u8nAMI8-261" value="&lt;b&gt;&lt;font style=&quot;font-size: 14px;&quot;&gt;Make&lt;/font&gt;&lt;/b&gt;" style="shape=rhombus;perimeter=rhombusPerimeter;whiteSpace=wrap;html=1;align=center;fillColor=#DA891F;strokeColor=#FFFFFF;rotation=-30;" parent="1" vertex="1">
          <mxGeometry x="35" y="80" width="75" height="40" as="geometry" />
        </mxCell>
        <mxCell id="60BpdWtxb0zM0u8nAMI8-263" value="" style="fontSize=12;html=1;endArrow=ERzeroToOne;startArrow=ERmandOne;rounded=0;entryX=0;entryY=0.75;entryDx=0;entryDy=0;exitX=1;exitY=0.75;exitDx=0;exitDy=0;" parent="1" source="60BpdWtxb0zM0u8nAMI8-6" target="60BpdWtxb0zM0u8nAMI8-8" edge="1">
          <mxGeometry width="100" height="100" relative="1" as="geometry">
            <mxPoint x="-920" y="-90" as="sourcePoint" />
            <mxPoint x="-1420" y="-350.0000000000002" as="targetPoint" />
          </mxGeometry>
        </mxCell>
        <mxCell id="60BpdWtxb0zM0u8nAMI8-160" value="&lt;b&gt;&lt;font style=&quot;font-size: 14px;&quot;&gt;Can be&lt;/font&gt;&lt;/b&gt;" style="shape=rhombus;perimeter=rhombusPerimeter;whiteSpace=wrap;html=1;align=center;fillColor=#DA891F;strokeColor=#FFFFFF;rotation=10;" parent="1" vertex="1">
          <mxGeometry x="-1110" y="-100" width="120" height="60" as="geometry" />
        </mxCell>
        <mxCell id="60BpdWtxb0zM0u8nAMI8-264" value="" style="endArrow=none;html=1;rounded=0;exitX=0.638;exitY=0.947;exitDx=0;exitDy=0;exitPerimeter=0;entryX=0.25;entryY=0;entryDx=0;entryDy=0;" parent="1" source="60BpdWtxb0zM0u8nAMI8-52" target="60BpdWtxb0zM0u8nAMI8-6" edge="1">
          <mxGeometry relative="1" as="geometry">
            <mxPoint x="-1360" y="20" as="sourcePoint" />
            <mxPoint x="-1200" y="20" as="targetPoint" />
          </mxGeometry>
        </mxCell>
        <mxCell id="60BpdWtxb0zM0u8nAMI8-265" value="" style="endArrow=none;html=1;rounded=0;exitX=1;exitY=0.5;exitDx=0;exitDy=0;entryX=0;entryY=0;entryDx=0;entryDy=0;" parent="1" source="60BpdWtxb0zM0u8nAMI8-51" target="60BpdWtxb0zM0u8nAMI8-6" edge="1">
          <mxGeometry relative="1" as="geometry">
            <mxPoint x="-1360" y="20" as="sourcePoint" />
            <mxPoint x="-1200" y="20" as="targetPoint" />
          </mxGeometry>
        </mxCell>
        <mxCell id="60BpdWtxb0zM0u8nAMI8-274" value="" style="endArrow=none;html=1;rounded=0;exitX=0.373;exitY=1;exitDx=0;exitDy=0;entryX=0.5;entryY=0;entryDx=0;entryDy=0;exitPerimeter=0;" parent="1" source="60BpdWtxb0zM0u8nAMI8-128" target="u00Ax2QvqGvgJEfIZU2q-8" edge="1">
          <mxGeometry relative="1" as="geometry">
            <mxPoint x="110" y="460" as="sourcePoint" />
            <mxPoint x="270" y="460" as="targetPoint" />
          </mxGeometry>
        </mxCell>
        <mxCell id="60BpdWtxb0zM0u8nAMI8-280" value="&lt;b&gt;&lt;font style=&quot;font-size: 14px;&quot;&gt;MaxParticipants&lt;/font&gt;&lt;/b&gt;" style="ellipse;whiteSpace=wrap;html=1;align=center;strokeColor=#FFFFFF;fillColor=light-dark(#E9C569,#000000);rotation=30;" parent="1" vertex="1">
          <mxGeometry x="-370" y="940" width="120" height="50" as="geometry" />
        </mxCell>
        <mxCell id="u00Ax2QvqGvgJEfIZU2q-1" value="" style="fontSize=12;html=1;endArrow=ERoneToMany;startArrow=ERzeroToOne;rounded=0;entryX=0.25;entryY=1;entryDx=0;entryDy=0;exitX=1;exitY=0.25;exitDx=0;exitDy=0;" parent="1" source="60BpdWtxb0zM0u8nAMI8-6" target="60BpdWtxb0zM0u8nAMI8-256" edge="1">
          <mxGeometry width="100" height="100" relative="1" as="geometry">
            <mxPoint x="-876" y="-328" as="sourcePoint" />
            <mxPoint x="-280" y="-420" as="targetPoint" />
          </mxGeometry>
        </mxCell>
        <mxCell id="u00Ax2QvqGvgJEfIZU2q-2" value="&lt;b&gt;&lt;font style=&quot;font-size: 14px;&quot;&gt;Makes&lt;/font&gt;&lt;/b&gt;" style="shape=rhombus;perimeter=rhombusPerimeter;whiteSpace=wrap;html=1;align=center;fillColor=#DA891F;strokeColor=#FFFFFF;rotation=-15;" parent="1" vertex="1">
          <mxGeometry x="-975" y="-326" width="134.28" height="56.91" as="geometry" />
        </mxCell>
        <mxCell id="u00Ax2QvqGvgJEfIZU2q-5" value="" style="fontSize=12;html=1;endArrow=ERzeroToMany;startArrow=ERmandOne;rounded=0;entryX=1;entryY=0;entryDx=0;entryDy=0;exitX=0.5;exitY=1;exitDx=0;exitDy=0;" parent="1" source="60BpdWtxb0zM0u8nAMI8-127" target="60BpdWtxb0zM0u8nAMI8-7" edge="1">
          <mxGeometry width="100" height="100" relative="1" as="geometry">
            <mxPoint x="-299" y="63" as="sourcePoint" />
            <mxPoint x="-199" y="-37" as="targetPoint" />
          </mxGeometry>
        </mxCell>
        <mxCell id="60BpdWtxb0zM0u8nAMI8-251" value="&lt;b&gt;&lt;font style=&quot;font-size: 14px;&quot;&gt;Resides In&lt;/font&gt;&lt;/b&gt;" style="shape=rhombus;perimeter=rhombusPerimeter;whiteSpace=wrap;html=1;align=center;fillColor=#DA891F;strokeColor=#FFFFFF;rotation=-55;" parent="1" vertex="1">
          <mxGeometry x="-110" width="120" height="60" as="geometry" />
        </mxCell>
        <mxCell id="u00Ax2QvqGvgJEfIZU2q-8" value="&lt;b&gt;&lt;font style=&quot;font-size: 14px;&quot;&gt;Rank&lt;/font&gt;&lt;/b&gt;" style="ellipse;whiteSpace=wrap;html=1;align=center;dashed=1;fillColor=light-dark(#E9C569,#000000);" parent="1" vertex="1">
          <mxGeometry x="-37" y="970" width="100" height="40" as="geometry" />
        </mxCell>
        <mxCell id="u00Ax2QvqGvgJEfIZU2q-9" value="&lt;span style=&quot;font-size: 14px;&quot;&gt;&lt;b&gt;Round Name&lt;/b&gt;&lt;/span&gt;" style="ellipse;whiteSpace=wrap;html=1;align=center;strokeColor=#FFFFFF;fillColor=light-dark(#E9C569,#000000);rotation=-20;" parent="1" vertex="1">
          <mxGeometry x="160" y="954" width="100" height="40" as="geometry" />
        </mxCell>
        <mxCell id="KpKwHpvAeSLFWEE4jo0C-1" value="&lt;b&gt;&lt;font style=&quot;font-size: 14px;&quot;&gt;Password&lt;/font&gt;&lt;/b&gt;" style="ellipse;whiteSpace=wrap;html=1;align=center;strokeColor=#FFFFFF;fillColor=light-dark(#E9C569,#000000);" vertex="1" parent="1">
          <mxGeometry x="-466" y="-185.09" width="100" height="40" as="geometry" />
        </mxCell>
        <mxCell id="KpKwHpvAeSLFWEE4jo0C-2" value="" style="endArrow=none;html=1;rounded=0;exitX=0.5;exitY=1;exitDx=0;exitDy=0;entryX=0.75;entryY=0;entryDx=0;entryDy=0;" edge="1" parent="1" source="KpKwHpvAeSLFWEE4jo0C-1" target="60BpdWtxb0zM0u8nAMI8-8">
          <mxGeometry relative="1" as="geometry">
            <mxPoint x="-510" y="-90" as="sourcePoint" />
            <mxPoint x="-505" y="-52" as="targetPoint" />
          </mxGeometry>
        </mxCell>
        <mxCell id="KpKwHpvAeSLFWEE4jo0C-3" value="&lt;b&gt;&lt;font style=&quot;font-size: 14px;&quot;&gt;City&lt;/font&gt;&lt;/b&gt;" style="ellipse;whiteSpace=wrap;html=1;align=center;strokeColor=#FFFFFF;fillColor=light-dark(#E9C569,#000000);" vertex="1" parent="1">
          <mxGeometry x="-425" y="-24" width="100" height="40" as="geometry" />
        </mxCell>
        <mxCell id="KpKwHpvAeSLFWEE4jo0C-4" value="" style="endArrow=none;html=1;rounded=0;exitX=0;exitY=0.5;exitDx=0;exitDy=0;entryX=1;entryY=0.75;entryDx=0;entryDy=0;" edge="1" parent="1" source="KpKwHpvAeSLFWEE4jo0C-3" target="60BpdWtxb0zM0u8nAMI8-8">
          <mxGeometry relative="1" as="geometry">
            <mxPoint x="-510" y="-90" as="sourcePoint" />
            <mxPoint x="-512" y="-21" as="targetPoint" />
          </mxGeometry>
        </mxCell>
        <mxCell id="KpKwHpvAeSLFWEE4jo0C-7" value="&lt;b style=&quot;font-size: 14px;&quot;&gt;Privileges&lt;/b&gt;" style="ellipse;whiteSpace=wrap;html=1;align=center;strokeColor=#FFFFFF;fillColor=light-dark(#E9C569,#000000);" vertex="1" parent="1">
          <mxGeometry x="-1015" y="258" width="110" height="40" as="geometry" />
        </mxCell>
        <mxCell id="KpKwHpvAeSLFWEE4jo0C-9" value="&lt;b&gt;&lt;font style=&quot;font-size: 14px;&quot;&gt;PurchaseDate&lt;/font&gt;&lt;/b&gt;" style="ellipse;whiteSpace=wrap;html=1;align=center;strokeColor=#FFFFFF;fillColor=light-dark(#E9C569,#000000);" vertex="1" parent="1">
          <mxGeometry x="-1750" y="100" width="100" height="40" as="geometry" />
        </mxCell>
        <mxCell id="KpKwHpvAeSLFWEE4jo0C-10" value="" style="endArrow=none;html=1;rounded=0;exitX=0;exitY=0.75;exitDx=0;exitDy=0;entryX=1;entryY=0;entryDx=0;entryDy=0;" edge="1" parent="1" source="60BpdWtxb0zM0u8nAMI8-126" target="KpKwHpvAeSLFWEE4jo0C-9">
          <mxGeometry relative="1" as="geometry">
            <mxPoint x="-1540" y="80" as="sourcePoint" />
            <mxPoint x="-1540" y="150" as="targetPoint" />
          </mxGeometry>
        </mxCell>
        <mxCell id="KpKwHpvAeSLFWEE4jo0C-11" value="&lt;b&gt;&lt;font style=&quot;font-size: 14px;&quot;&gt;Experties&lt;/font&gt;&lt;/b&gt;" style="ellipse;shape=doubleEllipse;margin=3;whiteSpace=wrap;html=1;align=center;fillColor=light-dark(#E9C569,#000000);strokeColor=#000000;" vertex="1" parent="1">
          <mxGeometry x="-497" y="408" width="120" height="50" as="geometry" />
        </mxCell>
        <mxCell id="KpKwHpvAeSLFWEE4jo0C-12" value="&lt;b&gt;&lt;font style=&quot;font-size: 14px;&quot;&gt;Rules&lt;/font&gt;&lt;/b&gt;" style="ellipse;whiteSpace=wrap;html=1;align=center;strokeColor=#FFFFFF;fillColor=light-dark(#E9C569,#000000);" vertex="1" parent="1">
          <mxGeometry x="-425" y="1030" width="100" height="40" as="geometry" />
        </mxCell>
        <mxCell id="KpKwHpvAeSLFWEE4jo0C-13" value="&lt;font style=&quot;color: rgb(255, 255, 255); font-size: 14px;&quot;&gt;&lt;b style=&quot;&quot;&gt;Sponsorship package&lt;/b&gt;&lt;/font&gt;" style="whiteSpace=wrap;html=1;align=center;fillColor=light-dark(#970003,#000000);strokeColor=#FFFFFF;" vertex="1" parent="1">
          <mxGeometry x="-1792" y="298" width="175" height="40" as="geometry" />
        </mxCell>
        <mxCell id="KpKwHpvAeSLFWEE4jo0C-15" value="&lt;b&gt;&lt;font style=&quot;font-size: 14px;&quot;&gt;package ID&lt;/font&gt;&lt;/b&gt;" style="ellipse;whiteSpace=wrap;html=1;align=center;fontStyle=4;strokeColor=#FFFFFF;fillColor=light-dark(#E9C569,#000000);" vertex="1" parent="1">
          <mxGeometry x="-1892" y="383" width="100" height="40" as="geometry" />
        </mxCell>
        <mxCell id="KpKwHpvAeSLFWEE4jo0C-16" value="&lt;b style=&quot;font-size: 14px;&quot;&gt;Package Name&lt;/b&gt;" style="ellipse;whiteSpace=wrap;html=1;align=center;strokeColor=#FFFFFF;fillColor=light-dark(#E9C569,#000000);" vertex="1" parent="1">
          <mxGeometry x="-1800" y="451" width="126" height="40" as="geometry" />
        </mxCell>
        <mxCell id="KpKwHpvAeSLFWEE4jo0C-17" value="&lt;b style=&quot;font-size: 14px;&quot;&gt;Description&lt;/b&gt;" style="ellipse;whiteSpace=wrap;html=1;align=center;strokeColor=#FFFFFF;fillColor=light-dark(#E9C569,#000000);" vertex="1" parent="1">
          <mxGeometry x="-1642" y="451" width="126" height="40" as="geometry" />
        </mxCell>
        <mxCell id="KpKwHpvAeSLFWEE4jo0C-18" value="&lt;b style=&quot;font-size: 14px;&quot;&gt;Benefits&lt;/b&gt;" style="ellipse;whiteSpace=wrap;html=1;align=center;strokeColor=#FFFFFF;fillColor=light-dark(#E9C569,#000000);" vertex="1" parent="1">
          <mxGeometry x="-1521" y="405" width="126" height="40" as="geometry" />
        </mxCell>
        <mxCell id="KpKwHpvAeSLFWEE4jo0C-19" value="&lt;b style=&quot;font-size: 14px;&quot;&gt;Amount&lt;/b&gt;" style="ellipse;whiteSpace=wrap;html=1;align=center;strokeColor=#FFFFFF;fillColor=light-dark(#E9C569,#000000);" vertex="1" parent="1">
          <mxGeometry x="-2042" y="322" width="126" height="40" as="geometry" />
        </mxCell>
        <mxCell id="KpKwHpvAeSLFWEE4jo0C-20" value="" style="endArrow=none;html=1;rounded=0;exitX=1;exitY=1;exitDx=0;exitDy=0;entryX=0.58;entryY=0.025;entryDx=0;entryDy=0;entryPerimeter=0;" edge="1" parent="1" source="KpKwHpvAeSLFWEE4jo0C-13" target="KpKwHpvAeSLFWEE4jo0C-18">
          <mxGeometry relative="1" as="geometry">
            <mxPoint x="-1328" y="451" as="sourcePoint" />
            <mxPoint x="-1268" y="476" as="targetPoint" />
          </mxGeometry>
        </mxCell>
        <mxCell id="KpKwHpvAeSLFWEE4jo0C-21" value="" style="endArrow=none;html=1;rounded=0;exitX=0.75;exitY=1;exitDx=0;exitDy=0;entryX=0.5;entryY=0;entryDx=0;entryDy=0;" edge="1" parent="1" source="KpKwHpvAeSLFWEE4jo0C-13" target="KpKwHpvAeSLFWEE4jo0C-17">
          <mxGeometry relative="1" as="geometry">
            <mxPoint x="-1318" y="461" as="sourcePoint" />
            <mxPoint x="-1258" y="486" as="targetPoint" />
          </mxGeometry>
        </mxCell>
        <mxCell id="KpKwHpvAeSLFWEE4jo0C-22" value="" style="endArrow=none;html=1;rounded=0;exitX=0.5;exitY=1;exitDx=0;exitDy=0;entryX=0.5;entryY=0;entryDx=0;entryDy=0;" edge="1" parent="1" source="KpKwHpvAeSLFWEE4jo0C-13" target="KpKwHpvAeSLFWEE4jo0C-16">
          <mxGeometry relative="1" as="geometry">
            <mxPoint x="-1308" y="471" as="sourcePoint" />
            <mxPoint x="-1248" y="496" as="targetPoint" />
          </mxGeometry>
        </mxCell>
        <mxCell id="KpKwHpvAeSLFWEE4jo0C-23" value="" style="endArrow=none;html=1;rounded=0;exitX=0;exitY=1;exitDx=0;exitDy=0;entryX=0.74;entryY=0.018;entryDx=0;entryDy=0;entryPerimeter=0;" edge="1" parent="1" source="KpKwHpvAeSLFWEE4jo0C-13" target="KpKwHpvAeSLFWEE4jo0C-15">
          <mxGeometry relative="1" as="geometry">
            <mxPoint x="-1298" y="481" as="sourcePoint" />
            <mxPoint x="-1238" y="506" as="targetPoint" />
          </mxGeometry>
        </mxCell>
        <mxCell id="KpKwHpvAeSLFWEE4jo0C-24" value="" style="endArrow=none;html=1;rounded=0;exitX=0;exitY=0.5;exitDx=0;exitDy=0;entryX=1;entryY=0.5;entryDx=0;entryDy=0;" edge="1" parent="1" source="KpKwHpvAeSLFWEE4jo0C-13" target="KpKwHpvAeSLFWEE4jo0C-19">
          <mxGeometry relative="1" as="geometry">
            <mxPoint x="-1288" y="491" as="sourcePoint" />
            <mxPoint x="-1228" y="516" as="targetPoint" />
          </mxGeometry>
        </mxCell>
        <mxCell id="KpKwHpvAeSLFWEE4jo0C-25" value="&lt;b&gt;&lt;font style=&quot;font-size: 14px;&quot;&gt;Package ID&lt;/font&gt;&lt;/b&gt;" style="ellipse;whiteSpace=wrap;html=1;align=center;strokeColor=#FFFFFF;fillColor=light-dark(#E9C569,#000000);" vertex="1" parent="1">
          <mxGeometry x="-1792" y="10" width="100" height="40" as="geometry" />
        </mxCell>
        <mxCell id="KpKwHpvAeSLFWEE4jo0C-26" value="" style="endArrow=none;html=1;rounded=0;exitX=0;exitY=0.25;exitDx=0;exitDy=0;entryX=1;entryY=0.5;entryDx=0;entryDy=0;" edge="1" parent="1" source="60BpdWtxb0zM0u8nAMI8-126" target="KpKwHpvAeSLFWEE4jo0C-25">
          <mxGeometry relative="1" as="geometry">
            <mxPoint x="-1595" y="70" as="sourcePoint" />
            <mxPoint x="-1655" y="116" as="targetPoint" />
          </mxGeometry>
        </mxCell>
        <mxCell id="KpKwHpvAeSLFWEE4jo0C-27" value="" style="fontSize=12;html=1;endArrow=ERoneToMany;startArrow=ERzeroToOne;rounded=0;entryX=0.25;entryY=1;entryDx=0;entryDy=0;exitX=0.5;exitY=0;exitDx=0;exitDy=0;" edge="1" parent="1" source="KpKwHpvAeSLFWEE4jo0C-13" target="60BpdWtxb0zM0u8nAMI8-126">
          <mxGeometry width="100" height="100" relative="1" as="geometry">
            <mxPoint x="-1540" y="-120" as="sourcePoint" />
            <mxPoint x="-1540" y="40" as="targetPoint" />
          </mxGeometry>
        </mxCell>
        <mxCell id="KpKwHpvAeSLFWEE4jo0C-28" value="&lt;b&gt;&lt;font style=&quot;font-size: 14px;&quot;&gt;Have&lt;/font&gt;&lt;/b&gt;" style="shape=rhombus;perimeter=rhombusPerimeter;whiteSpace=wrap;html=1;align=center;fillColor=#DA891F;strokeColor=#FFFFFF;rotation=20;" vertex="1" parent="1">
          <mxGeometry x="-1712" y="175" width="120" height="60" as="geometry" />
        </mxCell>
      </root>
    </mxGraphModel>
  </diagram>
</mxfile>
